<?xml version="1.0" encoding="UTF-8" standalone="no"?>
<svg
   xmlns:dc="http://purl.org/dc/elements/1.1/"
   xmlns:cc="http://creativecommons.org/ns#"
   xmlns:rdf="http://www.w3.org/1999/02/22-rdf-syntax-ns#"
   xmlns:svg="http://www.w3.org/2000/svg"
   xmlns="http://www.w3.org/2000/svg"
   xmlns:sodipodi="http://sodipodi.sourceforge.net/DTD/sodipodi-0.dtd"
   xmlns:inkscape="http://www.inkscape.org/namespaces/inkscape"
   width="755"
   height="660.625"
   viewBox="0 0 199.76041 174.79036"
   version="1.1"
   id="svg2286"
   inkscape:version="1.0 (4035a4f, 2020-05-01)"
   sodipodi:docname="karen-1.svg">
  <defs
     id="defs2280" />
  <sodipodi:namedview
     fit-margin-bottom="0"
     fit-margin-right="0"
     fit-margin-left="0"
     fit-margin-top="0"
     id="base"
     pagecolor="#ffffff"
     bordercolor="#666666"
     borderopacity="1.0"
     inkscape:pageopacity="0.0"
     inkscape:pageshadow="2"
     inkscape:zoom="0.88"
     inkscape:cx="381.59931"
     inkscape:cy="335.49281"
     inkscape:document-units="mm"
     inkscape:current-layer="layer1"
     inkscape:document-rotation="0"
     showgrid="false"
     inkscape:pagecheckerboard="true"
     units="px"
     inkscape:window-width="1440"
     inkscape:window-height="855"
     inkscape:window-x="0"
     inkscape:window-y="23"
     inkscape:window-maximized="0" />
  <metadata
     id="metadata2283">
    <rdf:RDF>
      <cc:Work
         rdf:about="">
        <dc:format>image/svg+xml</dc:format>
        <dc:type
           rdf:resource="http://purl.org/dc/dcmitype/StillImage" />
        <dc:title></dc:title>
      </cc:Work>
    </rdf:RDF>
  </metadata>
  <g
     transform="translate(-3.1095285,-2.7332833)"
     inkscape:label="Layer 1"
     inkscape:groupmode="layer"
     id="layer1">
    <g
       id="g2352"
       inkscape:groupmode="layer"
       style="display:inline">
      <path
         style="display:inline;fill:#daa520;stroke-width:0.331156"
         d="M 23.30288,133.94807 C 21.131577,126.75582 19.515736,119.33348 18.264464,111.86001 17.263677,105.88259 17.022615,101.64155 16.302639,93.740071 15.274744,82.459312 15.247147,70.585085 18.287799,59.79021 21.01482,50.108783 25.866621,41.33025 32.380787,33.88483 40.899613,24.148168 53.025732,15.307862 68.263101,9.5938105 83.500472,3.8797587 101.84909,1.2919641 104.90004,4.0603305 c 6.10193,5.536736 -0.91416,4.73903 5.05141,0.076078 5.96559,-4.66295354 25.32424,3.307788 36.80545,9.1301965 10.96736,5.561831 21.36788,13.634413 29.29251,23.963043 5.89296,7.680624 10.65973,17.084059 12.64749,27.055277 3.10591,15.580227 1.26412,33.01809 -1.78625,47.897425 -1.18261,5.76862 -3.1322,11.30304 -4.99188,16.83301 -1.84455,5.48505 -3.92417,10.86751 -6.1071,16.18745 -1.9998,4.87366 -4.08887,9.70683 -6.39806,14.39805 -1.73611,3.52694 -5.25162,9.43551 -5.59697,10.31782 0,0 2.98036,-10.40804 3.94052,-15.76078 0.81071,-4.51956 1.90232,-14.59367 1.52294,-13.73117 -3.12519,7.95566 -5.56666,10.00378 -6.67186,11.56259 0,0 0.46156,-8.67299 0.0269,-12.96657 -0.49667,-4.90567 -1.52981,-9.76837 -2.99015,-14.41592 -3.64287,-11.59361 -8.3897,-22.83364 -14.26095,-33.163682 -3.97672,-6.996758 -8.92783,-13.253253 -14.03162,-19.219877 -6.73141,-7.869393 -21.75698,-21.720987 -21.75698,-21.720987 0.23245,-0.06129 -5.95763,15.709008 -10.409532,22.486133 -3.009339,4.581111 -6.718435,8.619964 -10.795634,11.945953 -3.824438,3.119796 -6.835231,4.180385 -12.564795,7.305011 -4.393712,2.396117 -7.510194,4.178464 -14.609567,9.012759 -9.363063,6.37575 -18.641626,12.76711 -22.079568,23.60009 -2.481733,7.81997 0.576481,16.8044 2.670468,24.77159 1.814752,6.90474 5.769233,19.30816 5.769233,19.30816 0,0 -1.232641,-1.79934 -1.723877,-2.77128 -1.67149,-3.30707 -2.522937,-5.01995 -3.685931,-7.59041 -1.918856,-4.24108 -4.04431,-9.91873 -5.42662,-12.91176 -0.691156,-1.49653 0.414436,7.14261 2.497779,15.78577 2.083342,8.64315 5.584132,16.52327 4.652628,15.87679 -1.395438,-0.96846 -3.700093,-5.38619 -5.382769,-8.21617 -2.257907,-3.79742 -4.659393,-8.23689 -6.310302,-11.73565 -3.534274,-7.49009 -6.465041,-15.37539 -8.894025,-23.4212 z"
         id="path2356"
         sodipodi:nodetypes="aasassszaaasaaasaccaaaasaassascsasssasaa" />
      <path
         style="display:inline;fill:#543210;stroke-width:0.352778"
         d="m 108.13931,36.142539 c -0.10481,-0.464628 -0.43687,-2.318315 -0.73791,-4.119304 -0.94135,-5.631798 -1.07582,-5.878871 -3.26803,-6.004752 -4.316997,-0.247892 -13.990654,2.028253 -19.985639,4.702484 -3.768791,1.681174 -4.329394,1.739048 -2.992793,0.30896 3.425436,-3.665022 13.439731,-8.304356 20.576442,-9.532475 1.76443,-0.30363 3.28282,-0.625467 3.37422,-0.715193 1.76105,-1.728887 -19.315163,-0.698479 -24.221264,1.184168 -1.244519,0.477567 -0.159597,-0.803193 1.32799,-1.567701 4.656765,-2.393231 12.822853,-4.516147 18.934734,-4.922413 1.79476,-0.1193 3.2632,-0.345596 3.2632,-0.502882 0,-1.401734 -15.920371,-2.269241 -21.431246,-1.167797 -3.703366,0.740182 1.735405,-2.145667 6.461809,-3.428681 4.161694,-1.1297187 11.858427,-1.1418874 16.075927,-0.02542 l 3.04676,0.806552 2.95046,-0.806552 c 4.07253,-1.1132856 11.81449,-1.1055213 15.94276,0.01599 4.70662,1.27863 10.14431,4.134308 6.5857,3.458571 -4.68007,-0.888686 -17.31035,-0.563704 -20.43576,0.525819 -1.80196,0.628168 -1.24712,0.896699 2.35707,1.140759 6.02264,0.407829 13.65117,2.398358 18.42294,4.807137 1.95228,0.985508 2.96234,2.07394 1.509,1.626088 -5.43035,-1.673385 -24.09773,-2.805888 -23.83196,-1.445825 0.0378,0.193466 1.97554,0.777364 4.30608,1.297551 6.8966,1.539359 13.47562,4.490737 17.93838,8.047233 2.91386,2.322141 2.35213,2.625565 -1.62243,0.876367 -5.78748,-2.547066 -14.82776,-4.752072 -19.48296,-4.752072 -2.2843,0 -2.57461,0.493439 -3.53063,6.001003 -0.78715,4.534747 -1.20056,5.665449 -1.53285,4.192385 z"
         id="path2354" />
    </g>
  </g>
</svg>
