<?xml version="1.0" encoding="UTF-8" standalone="no"?>
<svg
   xmlns:dc="http://purl.org/dc/elements/1.1/"
   xmlns:cc="http://creativecommons.org/ns#"
   xmlns:rdf="http://www.w3.org/1999/02/22-rdf-syntax-ns#"
   xmlns:svg="http://www.w3.org/2000/svg"
   xmlns="http://www.w3.org/2000/svg"
   xmlns:sodipodi="http://sodipodi.sourceforge.net/DTD/sodipodi-0.dtd"
   xmlns:inkscape="http://www.inkscape.org/namespaces/inkscape"
   width="755"
   height="660.625"
   viewBox="0 0 199.76041 174.79036"
   version="1.1"
   id="svg2286"
   inkscape:version="1.0 (4035a4f, 2020-05-01)"
   sodipodi:docname="karen.svg">
  <defs
     id="defs2280" />
  <sodipodi:namedview
     fit-margin-bottom="0"
     fit-margin-right="0"
     fit-margin-left="0"
     fit-margin-top="0"
     id="base"
     pagecolor="#ffffff"
     bordercolor="#666666"
     borderopacity="1.0"
     inkscape:pageopacity="0.0"
     inkscape:pageshadow="2"
     inkscape:zoom="0.9"
     inkscape:cx="289.84248"
     inkscape:cy="337.19559"
     inkscape:document-units="mm"
     inkscape:current-layer="g2352"
     inkscape:document-rotation="0"
     showgrid="false"
     inkscape:pagecheckerboard="true"
     units="px"
     inkscape:window-width="1440"
     inkscape:window-height="855"
     inkscape:window-x="0"
     inkscape:window-y="23"
     inkscape:window-maximized="0" />
  <metadata
     id="metadata2283">
    <rdf:RDF>
      <cc:Work
         rdf:about="">
        <dc:format>image/svg+xml</dc:format>
        <dc:type
           rdf:resource="http://purl.org/dc/dcmitype/StillImage" />
        <dc:title></dc:title>
      </cc:Work>
    </rdf:RDF>
  </metadata>
  <g
     transform="translate(-3.1095285,-2.7332833)"
     inkscape:label="Layer 1"
     inkscape:groupmode="layer"
     id="layer1">
    <g
       id="g2352"
       inkscape:groupmode="layer"
       style="display:inline">
      <path
         style="display:inline;fill:#daa520;stroke-width:0.331426"
         d="M 16.212452,96.697336 C 15.015174,83.819965 15.488987,70.710793 18.240053,59.848294 20.96874,50.157011 25.823505,41.369542 32.341652,33.916543 40.865683,24.169969 52.999212,15.320663 68.245891,9.6007945 83.492573,3.8809258 101.8524,1.2904968 104.90522,4.0616815 c 6.10566,5.5423723 -0.91472,4.7438543 5.0545,0.076155 5.96923,-4.66770044 25.33971,3.3111553 36.82794,9.1394915 10.97406,5.567493 21.38093,13.648293 29.3104,23.987437 12.27177,16.739496 15.80903,37.666615 13.72649,57.84874 -2.08255,20.182125 -9.7849,39.619255 -16.75619,53.378775 -1.73264,3.33937 -5.25482,8.91541 -5.60039,9.79862 0,0 2.69165,-12.70556 3.58994,-19.13163 1.38168,-9.88396 3.13896,-30.67625 2.75935,-29.81288 -4.36258,7.61063 -12.80643,16.72357 -13.9123,18.28396 -0.70205,-11.09437 -0.7673,-18.42848 -2.02473,-31.235056 -1.25742,-12.806586 -7.31716,-19.287666 -14.71328,-28.19446 -6.73433,-7.878425 -21.77027,-17.409146 -21.77027,-17.409146 -7.04157,12.029251 -13.07595,17.977099 -22.790646,26.099713 -6.663513,4.777547 -17.58572,12.397906 -23.883142,17.338476 -6.297424,4.940568 -11.339544,12.498403 -14.907266,19.077093 -3.174009,5.92271 -9.901262,21.16275 -5.514423,34.97517 -6.636631,-7.99889 -12.321613,-18.92521 -16.69953,-28.17685 -0.345789,-0.74903 -0.346415,6.67258 -0.03812,15.20644 0.308293,8.53385 0.444151,12.16058 1.815394,21.87993 1.243288,8.81241 5.411048,20.9543 4.478975,20.30716 -1.396291,-0.96945 -4.119395,-5.72477 -5.915549,-8.75424 -2.145588,-3.61886 -3.603259,-6.30302 -5.784667,-11.21789 C 23.456779,138.08131 18.094309,115.92998 16.212452,96.697336 Z"
         id="path2356"
         sodipodi:nodetypes="ccssszacscsacccsccscccssascc" />
      <path
         style="display:inline;fill:#543210;stroke-width:0.595683"
         d="m 118.15373,42.667562 c -1.25156,-2.896685 -3.68507,-4.040453 -5.99908,-4.167509 -3.08572,-0.130605 -8.21143,1.698756 -11.50421,2.781692 -6.585569,2.165871 -13.055351,5.916112 -16.808549,8.120403 -4.833522,2.883448 -8.918379,5.201031 -14.642882,9.622798 0,0 2.66583,-7.176525 11.300234,-15.413423 6.16077,-5.877144 13.767535,-11.410624 23.253637,-13.631128 1.63081,-1.283698 -16.788753,3.498878 -27.235389,8.69945 -10.446637,5.200573 -10.996882,5.972998 -15.83231,8.741452 1.077165,-7.017579 9.416064,-14.392439 14.030126,-17.452389 8.443579,-6.069314 17.376442,-9.776002 25.445003,-11.144307 -0.0485,-1.040787 -16.388599,0.28908 -25.994668,3.882157 -9.445202,3.532906 -10.504005,5.247671 -19.711012,8.672322 2.384265,-4.96176 11.296412,-12.757728 20.272628,-17.462437 6.489257,-3.517629 17.817325,-5.3470289 23.53119,-5.5894915 5.578432,-0.3000292 9.812882,1.8561325 11.894582,2.6722115 5.31839,-3.9167681 10.72628,-1.9820048 16.9325,-0.06925 4.90307,1.512007 11.04278,4.317007 17.54873,8.066682 6.50595,3.749675 9.35138,6.691167 12.34801,9.83224 2.99662,3.141073 6.14446,6.481726 7.71157,11.029723 0,0 -8.84844,-6.519651 -16.50727,-9.872445 -9.56948,-4.189223 -16.58629,-6.488111 -25.20956,-6.17903 12.21899,3.244181 19.58721,8.316049 24.73463,12.453324 7.69048,6.18127 15.0789,16.190158 15.73062,23.742237 -5.25829,-4.361234 -11.27615,-9.743409 -17.73727,-14.281561 -6.46111,-4.538153 -13.36547,-8.232281 -20.39674,-7.616848 -1.56006,0.306768 -3.03458,1.832433 -3.50028,3.853586 -1.4904,7.071327 -2.93578,1.734954 -3.65424,0.709541 z"
         id="path2354"
         sodipodi:nodetypes="ccsccscscccsccccccscscscsccc" />
    </g>
  </g>
</svg>
