<?xml version="1.0" encoding="UTF-8" standalone="no"?>
<svg
   xmlns:dc="http://purl.org/dc/elements/1.1/"
   xmlns:cc="http://creativecommons.org/ns#"
   xmlns:rdf="http://www.w3.org/1999/02/22-rdf-syntax-ns#"
   xmlns:svg="http://www.w3.org/2000/svg"
   xmlns="http://www.w3.org/2000/svg"
   xmlns:sodipodi="http://sodipodi.sourceforge.net/DTD/sodipodi-0.dtd"
   xmlns:inkscape="http://www.inkscape.org/namespaces/inkscape"
   width="890"
   height="778.75"
   viewBox="0 0 235.47916 206.04427"
   version="1.1"
   id="svg1806"
   inkscape:version="1.0 (4035a4f, 2020-05-01)"
   sodipodi:docname="maga-1.svg">
  <defs
     id="defs1800" />
  <sodipodi:namedview
     inkscape:pagecheckerboard="true"
     id="base"
     pagecolor="#ffffff"
     bordercolor="#666666"
     borderopacity="1.0"
     inkscape:pageopacity="0.0"
     inkscape:pageshadow="2"
     inkscape:zoom="0.9"
     inkscape:cx="477.29967"
     inkscape:cy="336.78073"
     inkscape:document-units="mm"
     inkscape:current-layer="layer1"
     inkscape:document-rotation="0"
     showgrid="false"
     units="px"
     inkscape:window-width="1440"
     inkscape:window-height="855"
     inkscape:window-x="0"
     inkscape:window-y="23"
     inkscape:window-maximized="0"
     inkscape:snap-global="true"
     inkscape:snap-nodes="false"
     inkscape:snap-bbox="false"
     inkscape:snap-others="true"
     inkscape:object-nodes="true" />
  <metadata
     id="metadata1803">
    <rdf:RDF>
      <cc:Work
         rdf:about="">
        <dc:format>image/svg+xml</dc:format>
        <dc:type
           rdf:resource="http://purl.org/dc/dcmitype/StillImage" />
        <dc:title></dc:title>
      </cc:Work>
    </rdf:RDF>
  </metadata>
  <g
     style="display:inline"
     inkscape:label="Layer 2"
     id="layer3"
     inkscape:groupmode="layer">
    <rect
       y="60.854168"
       x="38.364582"
       height="46.302082"
       width="158.75"
       id="rect20"
       style="fill:#ffffff;stroke-width:0.233738" />
  </g>
  <g
     style="display:inline"
     inkscape:label="Layer 1"
     inkscape:groupmode="layer"
     id="layer1">
    <g
       transform="translate(-1.7034155,-2.38125)"
       id="g1872">
      <path
         style="display:inline;fill:#ff0000;stroke-width:0.352778"
         d="m 222.29474,193.66654 c -4.92494,-1.02908 -11.31406,-3.90652 -20.68223,-9.31456 -9.41231,-5.43353 -22.27131,-11.72841 -31.57361,-15.45627 -11.64237,-4.66564 -25.00468,-7.96478 -38.98195,-9.62462 -6.52884,-0.77532 -20.60264,-1.05403 -28.04583,-0.55542 -14.534795,0.97368 -23.294991,2.98166 -38.629173,8.85446 -13.824465,5.2946 -22.879971,9.65978 -34.748612,16.75047 -10.647246,6.36099 -14.982114,8.64353 -16.905118,8.90146 -2.561745,0.34361 -5.250166,-1.79823 -5.8521615,-4.66234 l -0.2224462,-1.05834 0.6760616,0.76605 c 1.2252587,1.38835 2.9942311,2.22986 4.6903791,2.23125 2.199005,0.002 5.734532,-1.76531 17.108568,-8.55109 10.016922,-5.97613 12.1393,-7.10424 20.420755,-10.85431 12.261579,-5.55238 26.602695,-10.74534 34.588131,-12.52447 9.265292,-2.06428 13.511993,-2.42141 28.927776,-2.43272 15.18216,-0.0111 18.01209,0.2044 27.57986,2.10053 21.3842,4.23791 40.69221,11.72731 61.2294,23.75035 8.64238,5.05949 10.45562,5.98703 14.55464,7.4452 6.06686,2.15821 10.70033,1.85134 13.44191,-0.89025 l 1.47073,-1.47072 -0.1735,1.44981 c -0.26356,2.20233 -1.21408,3.83768 -2.64414,4.54915 -1.5568,0.77452 -4.17658,1.02533 -6.22944,0.59638 z m -2.01739,-4.72827 c -4.47847,-1.01666 -7.61424,-2.49 -16.90095,-7.94092 -21.99671,-12.91115 -43.60555,-21.12275 -65.44028,-24.86804 -8.20274,-1.40701 -13.19549,-1.76494 -24.69445,-1.77037 -20.532812,-0.01 -30.41245,1.79156 -49.2125,8.97242 -13.863667,5.29536 -23.327922,9.86255 -35.454169,17.10922 -9.869852,5.89824 -14.249388,8.1926 -16.247321,8.51167 -1.725942,0.27563 -3.4294422,-0.95727 -4.6860434,-3.39151 -0.9385858,-1.81819 -0.9904195,-2.14037 -0.8261033,-5.13473 0.096424,-1.75715 1.0838956,-8.66278 2.1943816,-15.34583 1.8423071,-11.08726 2.0976781,-12.23562 2.9170441,-13.11747 3.83304,-4.12531 22.204332,-12.81474 37.412247,-17.69559 22.554118,-7.23855 57.250494,-11.68403 78.719134,-10.08588 25.2312,1.87822 64.10931,10.85287 85.4691,19.7417 2.4191,1.0067 1.8267,0.9416 3.49288,1.70879 0.50909,0.23441 7.36594,4.27868 9.63916,6.08512 2.19628,1.7453 2.60799,2.24567 2.79234,3.39362 0.75759,4.71763 1.34184,11.92065 1.51132,18.63258 0.21104,8.35797 -0.12962,11.08335 -1.65272,13.22236 -1.47009,2.06454 -5.11882,2.86144 -9.03307,1.97286 z M 5.7252167,152.16389 c -0.8024608,-0.32287 -1.4918832,-2.15889 -1.4918832,-3.97308 0,-5.56986 6.4064945,-45.73277 11.2864955,-70.75609 C 19.126506,58.940656 24.550656,47.984465 36.773162,34.505307 42.888876,27.76081 50.050081,22.959696 58.95166,19.636095 62.2903,18.38954 69.873495,16.133677 70.068775,16.328956 c 0.05507,0.05507 -1.707558,0.864417 -3.916952,1.798543 C 55.406589,22.670551 46.613451,29.628604 39.263466,39.404384 30.948037,50.464243 26.109745,61.797927 23.672131,75.92704 c -1.596397,9.253174 -2.147719,21.682593 -2.150596,48.48467 l -0.0021,19.46033 -2.734027,1.47426 c -2.976381,1.60494 -6.583368,4.08004 -8.597619,5.89966 -1.0014575,0.90469 -1.573136,1.14802 -2.6458334,1.12618 -0.7525947,-0.0153 -1.5701318,-0.10903 -1.8167489,-0.20825 z M 228.42362,151.1004 c -1.54731,-1.39282 -8.29541,-5.63388 -9.79575,-6.45741 l -0.96397,-0.52912 -0.002,-19.58124 c -0.003,-26.924591 -0.55225,-39.341138 -2.15059,-48.60559 -2.43762,-14.129113 -7.27591,-25.462797 -15.59134,-36.522656 -7.34998,-9.77578 -16.14312,-16.733833 -26.88836,-21.276885 -2.20939,-0.934126 -3.97202,-1.74347 -3.91695,-1.798543 0.19528,-0.195279 7.77848,2.060584 11.11712,3.307139 8.90157,3.323601 16.06278,8.124715 22.17849,14.869212 12.22254,13.479158 17.64669,24.435349 21.25337,42.929413 4.88,25.02332 11.28649,65.18623 11.28649,70.75609 0,1.91946 -0.6914,3.64012 -1.6033,3.99005 -0.31409,0.12052 -1.23278,0.21253 -2.04153,0.20445 -1.18051,-0.0118 -1.74868,-0.26514 -2.88156,-1.28491 z m -15.52222,-9.20939 c -14.81223,-6.23101 -46.2328,-14.20579 -68.96806,-17.50462 -12.63274,-1.83298 -16.15242,-2.05782 -29.10417,-1.85924 -13.77334,0.21118 -21.627005,0.92213 -35.694239,3.23123 -19.832056,3.25538 -38.097553,8.73821 -53.382152,16.02394 l -2.293056,1.09304 -0.298711,-9.61338 C 22.839668,122.92025 23.365505,93.278926 24.001189,85.901387 25.666337,66.576207 31.321056,51.801461 42.228641,38.276388 52.607403,25.407039 66.230535,17.737248 85.42466,13.957131 c 8.41932,-1.658112 26.15816,-3.178052 31.8277,-2.727135 l 1.63376,0.129937 v 7.5492 c 0,7.314014 0.022,7.5492 0.70555,7.5492 0.63138,0 0.70556,-0.235186 0.70556,-2.236966 0,-1.230331 0.10508,-4.664856 0.23353,-7.632276 l 0.23352,-5.39531 7.96856,0.241134 c 19.73132,0.597083 33.92435,3.48057 46.16979,9.379953 9.16455,4.415127 15.71107,9.598866 22.05207,17.46152 10.90759,13.525073 16.56231,28.299819 18.22746,47.624999 0.63502,7.369905 1.15913,37.015293 0.83908,47.462033 l -0.29762,9.71481 z m -22.8176,-34.67676 c 0.12205,-0.40163 0.0604,-0.41295 -0.31581,-0.058 -0.25708,0.24253 -0.57955,0.44097 -0.71659,0.44097 -0.13704,0 -0.30373,-1.57121 -0.37042,-3.49158 -0.0974,-2.80443 -0.25135,-3.63518 -0.78232,-4.221222 -0.82478,-0.910315 -3.27699,-1.461177 -4.37447,-0.982673 -0.90552,0.394811 -1.41995,1.851925 -0.85373,2.418145 0.57511,0.57512 1.47955,0.0454 1.47955,-0.8666 0,-0.606203 0.2172,-0.834048 0.84459,-0.885973 0.96501,-0.07986 1.46782,0.402244 1.80005,1.725943 0.21904,0.87273 0.14365,0.93727 -1.35792,1.16245 -2.03297,0.30486 -3.40339,1.35951 -3.40339,2.61917 0,2.00666 1.94736,3.2586 3.77403,2.42632 0.64736,-0.29496 0.91716,-0.25799 1.25898,0.1725 0.23928,0.30135 0.67317,0.62757 0.96421,0.72493 0.63259,0.2116 1.84082,-0.48535 2.05324,-1.18438 z m -5.84893,-1.02335 c -0.76447,-1.22411 -0.53053,-2.08082 0.70889,-2.59605 1.58586,-0.65926 2.02847,-0.39161 2.02847,1.22662 0,1.15899 -0.14608,1.43764 -0.90491,1.72615 -1.22853,0.46709 -1.33035,0.44726 -1.83245,-0.35672 z m -124.63478,0.41133 c 3.618954,-2.20081 5.13902,-7.63544 3.034157,-10.847869 -1.115772,-1.702883 -2.600917,-2.335502 -4.955078,-2.110687 -1.164166,0.111171 -2.169583,0.359325 -2.234258,0.551451 -0.06468,0.192123 -0.323652,0.349317 -0.575504,0.349317 -0.251848,0 -0.970626,0.515938 -1.597286,1.146528 -3.377234,3.398428 -3.308174,9.08442 0.136754,11.25932 1.34746,0.8507 4.512614,0.67276 6.191215,-0.34806 z m -3.829396,-0.0187 c -1.610642,-0.45055 -2.3128,-1.92441 -2.447258,-5.13689 -0.09125,-2.180154 0.01916,-3.183645 0.433786,-3.943144 1.30042,-2.38198 3.106399,-3.537362 4.626106,-2.959572 0.485838,0.184718 0.883341,0.240965 0.883341,0.124992 0,-0.115968 0.239727,-0.01189 0.53273,0.231274 0.950475,0.788826 1.672636,4.06302 1.404917,6.36973 -0.287514,2.47722 -1.293478,4.14486 -3.00856,4.98745 -1.360361,0.66832 -1.253356,0.65393 -2.425062,0.32616 z M 180.4244,105.50426 c 0.83841,-0.92643 0.44003,-2.75069 -0.71568,-3.27727 -0.83455,-0.38024 -0.83674,-0.39371 -0.1434,-0.87935 0.38727,-0.27126 0.70413,-0.85244 0.70413,-1.29151 0,-1.35502 -1.36365,-2.151836 -4.69886,-2.745667 l -3.09249,-0.550608 0.72068,0.767119 c 0.60988,0.649192 0.72067,1.231529 0.72067,3.787996 0,2.09679 -0.14482,3.14106 -0.47343,3.41379 -0.26038,0.2161 -0.57788,0.31491 -0.70555,0.21958 -0.12767,-0.0953 -0.1409,-0.0543 -0.0294,0.0913 0.2683,0.35016 3.83033,1.04427 5.65162,1.10129 1.02112,0.032 1.62553,-0.15467 2.06171,-0.63663 z m -4.1237,-0.40474 c -0.44161,-0.25722 -0.61736,-0.80651 -0.61736,-1.92955 0,-1.74859 0.27193,-1.87475 1.94028,-0.90018 1.33879,0.78206 1.53761,1.90027 0.47074,2.64753 -0.93328,0.6537 -0.97659,0.6581 -1.79366,0.1822 z m 0,-4.10953 c -0.45814,-0.1093 -0.61736,-0.50454 -0.61736,-1.532525 0,-0.761887 0.13436,-1.385245 0.29858,-1.385245 0.80817,0 2.55068,1.18479 2.45451,1.668889 -0.14266,0.718081 -1.36488,1.432781 -2.13573,1.248881 z m -107.152629,3.92762 c 1.791543,-0.23766 2.740328,-0.74632 1.301753,-0.69791 -0.744707,0.025 -0.780291,-0.12062 -0.876744,-3.58984 l -0.100538,-3.615973 h 1.103704 c 0.807014,0 1.153297,0.18966 1.288207,0.705555 0.10148,0.388056 0.324742,0.705556 0.496139,0.705556 0.424057,0 0.39732,-2.022069 -0.03023,-2.286314 -0.369221,-0.228187 -7.094957,0.846804 -7.470274,1.193994 -0.125078,0.115707 -0.33613,0.726313 -0.469001,1.356903 -0.279227,1.325159 0.328944,1.603119 0.656047,0.299837 0.172604,-0.687702 1.649123,-1.622754 2.562458,-1.622754 0.06806,0 0.123747,1.359811 0.123747,3.021806 0,2.86738 -0.326605,4.19107 -1.199338,4.86078 -0.237374,0.18215 -0.150005,0.22135 0.224903,0.10091 0.337185,-0.10832 1.41231,-0.30297 2.38917,-0.43255 z m 6.182589,-1.57809 c 0.341927,-0.66121 0.516566,-2.07825 0.516566,-4.191448 0,-1.755884 0.138906,-3.192519 0.30868,-3.192519 0.169775,0 0.804775,-0.09922 1.411111,-0.220486 l 1.102431,-0.220486 v 3.580606 c 0,3.494713 -0.02117,3.588653 -0.881944,3.915923 -0.48507,0.18442 -0.881945,0.39233 -0.881945,0.46202 0,0.23058 4.530069,-0.63307 4.736522,-0.90299 0.111301,-0.14552 0.09791,-0.18659 -0.02978,-0.0913 -0.12767,0.0953 -0.44517,-0.004 -0.705555,-0.21958 -0.328592,-0.27272 -0.473414,-1.317 -0.473414,-3.413788 0,-2.554633 0.111023,-3.139051 0.719335,-3.786572 l 0.719335,-0.765697 -3.806141,0.651637 c -2.093376,0.358398 -3.960526,0.653041 -4.14922,0.654763 -0.188691,0.0018 0.0097,0.25026 0.440972,0.552302 0.69185,0.484593 0.784052,0.860686 0.784052,3.198195 0,3.03557 -0.449721,4.31246 -1.277031,3.62586 -0.41892,-0.34768 -0.633024,-0.32269 -1.081969,0.12625 -0.858616,0.85862 -0.373804,1.5892 0.927816,1.39817 0.762935,-0.11198 1.263071,-0.47034 1.620174,-1.1609 z m 94.42848,0.92451 c 3.33991,-2.53627 1.39789,-8.595109 -2.79271,-8.712873 -1.98226,-0.0557 -2.54301,0.167164 -3.29647,1.310146 -1.54591,2.345105 -0.17722,6.813677 2.31068,7.544087 1.3618,0.3998 3.15417,0.33275 3.7785,-0.14136 z m -3.50468,-1.10398 c -1.66609,-1.90104 -1.87872,-5.59886 -0.38221,-6.647051 0.65374,-0.457899 0.86512,-0.458566 1.7413,-0.0055 0.7539,0.389858 1.1332,0.983389 1.55444,2.432392 0.70893,2.438619 0.42578,4.192059 -0.76451,4.734389 -1.17019,0.53318 -1.24719,0.51475 -2.14902,-0.51425 z m -4.95651,-0.34533 c -0.7102,-0.49745 -0.78405,-0.84447 -0.78405,-3.684167 0,-2.760652 0.0864,-3.195482 0.72325,-3.64158 0.69199,-0.484685 0.66529,-0.51658 -0.61736,-0.737627 -0.73734,-0.127067 -1.81687,-0.318766 -2.39895,-0.425993 l -1.05833,-0.194959 0.79375,0.579808 c 0.58274,0.425672 0.79375,0.937017 0.79375,1.923542 v 1.343738 l -1.49931,-0.290044 c -0.82462,-0.159526 -1.61837,-0.296961 -1.76389,-0.30541 -0.14552,-0.0084 -0.26458,-0.650364 -0.26458,-1.426475 0,-1.333468 0.24413,-1.615754 1.23472,-1.427688 0.23519,0.04465 0.23519,-0.04561 0,-0.270795 -0.19403,-0.185773 -1.30528,-0.446218 -2.46944,-0.578771 -2.01646,-0.229588 -2.07909,-0.213844 -1.32292,0.332578 0.72057,0.520692 0.79375,0.862594 0.79375,3.708565 0,2.839698 -0.0738,3.186718 -0.78405,3.684168 -0.74085,0.5189 -0.7457,0.55032 -0.0882,0.57019 0.38273,0.0116 1.48183,0.15 2.44246,0.30762 1.71319,0.2811 1.73175,0.27455 0.97014,-0.34216 -0.59798,-0.48422 -0.77646,-1.0046 -0.77646,-2.26388 v -1.635132 l 1.32292,0.219861 c 2.19193,0.364286 2.20486,0.37772 2.20486,2.291301 0,0.98768 -0.12665,1.71751 -0.28143,1.62185 -0.15479,-0.0957 -0.50099,-0.0382 -0.76934,0.12762 -0.34131,0.21094 -0.0713,0.37163 0.89879,0.53478 0.76268,0.12828 1.54545,0.28707 1.73948,0.35288 0.19403,0.0658 0.66591,0.13218 1.04863,0.14749 0.65096,0.0261 0.64527,-0.008 -0.0882,-0.52131 z m -74.86739,-0.89511 c 0.445117,-0.2508 0.431112,-0.29986 -0.08819,-0.30888 -1.088563,-0.0189 -0.67836,-1.29957 1.058333,-3.304121 l 1.675695,-1.934136 0.105847,2.116102 c 0.09102,1.819745 -0.0035,2.210855 -0.674303,2.792715 l -0.780146,0.67662 1.02708,-0.16418 c 4.035475,-0.64511 3.907353,-0.6034 3.05555,-0.99498 -0.735838,-0.33828 -0.79375,-0.59261 -0.79375,-3.485994 0,-2.622158 0.109774,-3.230865 0.686703,-3.807795 0.680417,-0.680416 0.669922,-0.68484 -1.146528,-0.483693 -1.746737,0.193428 -3.200132,0.817619 -1.903786,0.817619 1.080368,0 0.63966,1.255695 -1.164167,3.317028 l -1.763889,2.015695 v -2.108341 c 0,-2.477626 0.226614,-3.224382 0.978486,-3.224382 0.302619,0 0.473625,-0.07659 0.380012,-0.170205 -0.09361,-0.09362 -1.191112,0.0096 -2.438884,0.229411 -1.961977,0.345596 -2.161529,0.447432 -1.476092,0.753283 0.739348,0.329907 0.792589,0.573825 0.792589,3.631138 0,2.994016 -0.06865,3.326996 -0.79375,3.850076 -0.761354,0.54923 -0.721762,0.56265 0.970139,0.32889 0.970139,-0.13404 2.002014,-0.37788 2.293056,-0.54187 z m 62.34589,-0.78649 c 0.59893,-0.14018 2.21245,-1.693622 2.21245,-2.130064 0,-0.196504 -0.47625,0.09899 -1.05834,0.656664 -0.58208,0.55767 -1.05833,0.9088 -1.05833,0.78029 0,-0.12852 -0.40699,-0.0789 -0.90442,0.1102 -1.46075,0.55537 -4.02501,-0.46288 -5.0944,-2.022963 -1.20411,-1.756629 -1.44558,-6.345855 -0.43095,-8.190346 0.88461,-1.60811 2.83937,-2.338338 4.57727,-1.709907 1.18538,0.428639 3.26361,2.780869 3.26361,3.69389 0,0.252818 0.16663,0.459669 0.3703,0.459669 0.24471,0 0.28868,-0.747751 0.12963,-2.204861 -0.27123,-2.484949 -0.35102,-2.671272 -0.90613,-2.116165 -0.29073,0.290731 -0.61502,0.249904 -1.23343,-0.15529 -1.17385,-0.76914 -4.98971,-0.898592 -6.12148,-0.207669 -2.27375,1.388078 -3.175,3.0301 -3.175,5.784638 0,2.204441 1.03108,4.528541 2.54877,5.745011 0.63547,0.509343 1.33572,1.071773 1.55611,1.249853 0.71617,0.57863 3.3974,0.70808 5.32434,0.25705 z m -47.12721,-0.94423 c 0.62349,0 0.62103,-0.0353 -0.0492,-0.705559 -0.58796,-0.587964 -0.70555,-1.175925 -0.70555,-3.527778 0,-2.351853 0.11759,-2.939813 0.70555,-3.527777 l 0.70556,-0.705556 -1.14653,0.04174 c -0.63059,0.02297 -1.622775,0.146378 -2.204859,0.274267 -0.842574,0.185124 -0.932476,0.282237 -0.440972,0.476356 0.444295,0.175475 0.617361,0.639036 0.617361,1.6536 0,1.544242 -0.632026,2.140151 -2.269864,2.140151 -0.825652,0 -0.905136,-0.12803 -0.905136,-1.457925 0,-1.041699 0.211406,-1.64128 0.740498,-2.10016 0.732783,-0.635536 0.726349,-0.640327 -0.617361,-0.459496 -2.400342,0.323021 -2.97881,0.503057 -2.759022,0.858678 0.118357,0.191506 0.362973,0.256858 0.543595,0.145225 0.185745,-0.114794 0.328401,0.553554 0.328401,1.538552 0,2.595457 0.531065,2.857708 4.01579,1.983098 0.896285,-0.224952 0.923099,-0.184129 0.923099,1.405431 0,1.35871 -0.134983,1.696713 -0.79375,1.987603 -0.610898,0.26975 -0.396388,0.30776 0.931182,0.16502 0.948718,-0.10201 2.020278,-0.18547 2.381248,-0.18547 z m 5.59521,-0.705559 c 0.4279,-0.276532 0.37727,-0.343006 -0.26458,-0.347377 -0.71427,-0.0049 -0.79375,-0.178255 -0.79375,-1.731546 0,-1.905187 0.26859,-2.15441 2.32191,-2.15441 h 1.20586 v 1.709981 c 0,1.4247 -0.13242,1.773844 -0.79375,2.09279 -0.67685,0.326433 -0.508,0.38553 1.14653,0.401285 2.13327,0.02032 3.41352,-0.43936 2.14649,-0.770696 -0.67587,-0.176745 -0.73538,-0.446528 -0.73538,-3.333813 0,-2.755851 0.096,-3.244508 0.78168,-3.980537 0.64254,-0.689684 0.6688,-0.795714 0.14753,-0.595686 -0.34877,0.13384 -1.45459,0.254088 -2.45737,0.267219 -1.57196,0.0206 -1.71384,0.07663 -1.02948,0.406685 0.61927,0.298662 0.79375,0.681158 0.79375,1.740013 0,1.309719 -0.0422,1.357203 -1.20586,1.357203 -0.66323,0 -1.45698,0.09636 -1.76389,0.214133 -0.94211,0.361519 -0.7455,-2.255848 0.23573,-3.138174 0.63469,-0.57072 0.66426,-0.667378 0.14753,-0.482349 -0.35542,0.127264 -1.4623,0.23139 -2.45974,0.23139 -1.74198,0 -1.7826,0.02166 -1.02949,0.54917 0.7102,0.497444 0.78406,0.844468 0.78406,3.684164 0,2.839695 -0.0739,3.186719 -0.78406,3.684164 -0.75023,0.525487 -0.70079,0.548936 1.14653,0.543768 1.06182,-0.003 2.16871,-0.15929 2.45975,-0.347377 z m 25.46149,-0.463709 c -0.66426,-0.707076 -0.76705,-1.221288 -0.76705,-3.837361 0,-2.096788 0.14483,-3.141063 0.47344,-3.413785 0.26038,-0.216101 0.60333,-0.275226 0.76211,-0.131388 0.15878,0.143834 0.17449,0.06308 0.0349,-0.179451 -0.15751,-0.273717 -1.01524,-0.436718 -2.26142,-0.429754 -1.7452,0.0098 -1.92694,0.07248 -1.39029,0.479866 1.14045,0.865724 0.82885,1.439164 -2.11666,3.895287 l -0.79375,0.661871 v -2.359102 c 0,-2.116755 0.0815,-2.391872 0.79375,-2.678148 0.58533,-0.235274 0.14535,-0.31865 -1.6757,-0.317532 -2.0286,0.0014 -2.32774,0.06985 -1.67569,0.384324 0.73872,0.356273 0.79375,0.610033 0.79375,3.660288 0,2.986934 -0.0695,3.326158 -0.78406,3.826647 -0.74372,0.520922 -0.66659,0.548619 1.49931,0.538441 1.72328,-0.0081 2.13193,-0.09893 1.666,-0.370307 -1.04482,-0.608549 -0.6942,-1.5604 1.14652,-3.112519 l 1.76389,-1.487333 v 2.290283 c 0,2.054482 -0.0817,2.319969 -0.79375,2.578636 -0.60658,0.220363 -0.25305,0.336388 1.49931,0.492051 1.26118,0.112032 2.36041,0.231094 2.44274,0.264583 0.0823,0.03348 -0.19548,-0.306528 -0.61736,-0.755597 z m -12.38065,-0.138151 c 2.76973,-1.636123 2.75953,-6.599675 -0.0165,-8.035223 -1.25157,-0.647213 -3.07051,-0.672412 -4.17794,-0.05788 -2.72647,1.512962 -2.9296,6.332823 -0.34324,8.144383 1.03627,0.725826 3.2648,0.700641 4.5377,-0.05128 z m -3.18445,-0.790642 c -0.90209,-0.902084 -1.54387,-3.356483 -1.26557,-4.839952 0.25937,-1.382543 1.56882,-2.403539 2.64466,-2.062078 1.08568,0.344579 1.90878,2.217505 1.91926,4.367152 0.008,1.562517 -0.13413,2.009543 -0.81101,2.557639 -1.04138,0.84327 -1.62667,0.837914 -2.48734,-0.02275 z m 76.58675,-8.966627 c 0.55317,-0.763619 1.00575,-1.511737 1.00575,-1.662483 0,-0.150745 0.53455,-1.436613 1.18788,-2.857485 0.65333,-1.420873 1.30073,-2.945959 1.43867,-3.389087 0.13794,-0.443124 0.56766,-1.100892 0.95495,-1.461703 0.69483,-0.647333 0.68312,-0.657691 -0.8849,-0.782401 -1.43439,-0.114081 -1.5396,-0.07174 -1.08098,0.435028 0.4462,0.493042 0.37623,0.852166 -0.57453,2.949039 -0.59543,1.313197 -1.13342,2.330823 -1.19554,2.261397 -0.0621,-0.06943 -0.61014,-1.316856 -1.21784,-2.772064 -0.9856,-2.360172 -1.04493,-2.689889 -0.54949,-3.053864 0.47648,-0.35004 0.41405,-0.439077 -0.43935,-0.626512 -0.54712,-0.12017 -1.56529,-0.269681 -2.2626,-0.332253 -0.69731,-0.06257 -1.45423,-0.228967 -1.68205,-0.369764 -0.8554,-0.528669 -2.3879,0.159378 -2.94172,1.320744 -0.34515,0.723787 -0.82501,1.162282 -1.31206,1.198971 -0.69102,0.05205 -0.75714,-0.0902 -0.66042,-1.420988 0.0857,-1.178638 0.23758,-1.468092 0.74836,-1.425918 1.3817,0.114085 0.0711,-0.426363 -1.90989,-0.787583 l -2.09435,-0.381886 0.71154,0.7574 c 0.59918,0.637794 0.71154,1.234461 0.71154,3.778278 0,2.096788 -0.14482,3.141063 -0.47343,3.413785 -0.26038,0.216101 -0.54084,0.354602 -0.62324,0.307777 -0.0824,-0.04682 -0.0678,0.0163 0.0325,0.140279 0.10025,0.123977 1.13477,0.383251 2.29893,0.576164 1.93724,0.32102 2.04938,0.305742 1.32292,-0.180245 -0.64093,-0.428763 -0.79375,-0.860192 -0.79375,-2.240788 0,-1.909667 0.59382,-2.088201 1.32908,-0.399584 0.93079,2.13772 1.94691,3.606807 2.49787,3.611357 0.32052,0.0028 0.97965,0.09381 1.46472,0.202573 0.76133,0.170712 0.8078,0.133872 0.33982,-0.269399 -0.66515,-0.573172 -1.77405,-2.142663 -2.76847,-3.918373 -0.69986,-1.249726 -0.71113,-1.389874 -0.17712,-2.204862 0.65991,-1.007152 0.53555,-0.969313 1.71365,-0.521398 0.77052,0.29295 0.95849,0.238675 1.17196,-0.338388 0.46769,-1.264274 1.09159,-0.280402 3.96749,6.256609 0.78498,1.784276 0.79407,1.905818 0.23089,3.086806 -0.6484,1.359725 -0.66034,1.364519 -2.25635,0.90679 -1.26632,-0.363174 -1.66603,0.07645 -1.01967,1.121477 0.2658,0.429719 0.75639,0.597472 1.58427,0.541715 0.9447,-0.06362 1.41273,-0.375461 2.205,-1.469161 z M 130.6566,88.521616 c 1.10545,-0.869552 1.25017,-2.091062 0.24774,-2.091062 -0.37499,0 -0.78261,0.317669 -0.90584,0.705929 -0.12323,0.388264 -0.54205,0.876117 -0.93071,1.084121 -0.58952,0.3155 -0.84863,0.213106 -1.56318,-0.617735 -0.47109,-0.547761 -0.85672,-1.114989 -0.85695,-1.26051 -2.4e-4,-0.145521 -0.31793,-0.264583 -0.70599,-0.264583 -0.85056,0 -0.98744,1.443549 -0.19894,2.097948 1.38185,1.146831 3.68916,1.309247 4.91387,0.345892 z M 55.040226,86.766694 c 0.578079,-1.395606 1.83486,-2.016072 4.672538,-2.306799 2.212171,-0.226642 2.32452,-0.199948 2.908335,0.691067 0.853776,1.303027 1.231682,1.154437 1.231682,-0.484297 0,-1.175925 -0.117592,-1.411111 -0.705556,-1.411111 -0.658251,0 -0.705555,-0.235187 -0.705555,-3.507776 0,-3.23011 0.06283,-3.553826 0.79375,-4.089604 0.715909,-0.524775 0.724556,-0.563986 0.08819,-0.399845 -0.388056,0.100093 -2.260177,0.452264 -4.16027,0.782602 -3.260958,0.566924 -3.411805,0.630664 -2.689662,1.136473 0.67813,0.47498 0.744008,0.767916 0.579843,2.578365 -0.203606,2.245395 -1.413785,4.782852 -2.435768,5.107217 -0.478275,0.1518 -0.642754,0.559018 -0.642754,1.591341 0,1.658786 0.45255,1.79149 1.065223,0.312367 z m 2.163565,-4.337667 c 0.345803,-1.000619 0.633917,-2.577299 0.640249,-3.503732 0.01013,-1.478531 0.122128,-1.726481 0.916429,-2.028472 1.854768,-0.705182 1.917312,-0.606799 1.917312,3.016073 0,3.733761 0.02773,3.693432 -2.845111,4.139964 l -1.25761,0.195474 z m -7.104864,3.82282 c 1.18303,-0.611766 3.149837,-2.592839 3.149837,-3.172682 0,-0.194028 -0.456156,0.148385 -1.013683,0.760917 -1.841828,2.023547 -4.430963,2.700048 -6.423914,1.678478 -2.751938,-1.410621 -2.104683,-9.748647 0.843696,-10.868618 0.533577,-0.202685 0.970139,-0.492464 0.970139,-0.643953 0,-0.15149 0.59962,-0.275435 1.332491,-0.275435 0.982194,0 1.631382,0.272997 2.469445,1.038447 0.625323,0.571147 1.136953,1.285522 1.136953,1.5875 0,0.301978 0.166635,0.549053 0.370297,0.549053 0.244715,0 0.288678,-0.747751 0.129632,-2.204861 -0.279746,-2.562934 -0.310565,-2.624797 -1.01599,-2.039349 -0.293832,0.243858 -0.908173,0.348305 -1.368749,0.23271 -1.046269,-0.262597 -4.695056,0.663194 -5.402655,1.370789 -0.290763,0.290766 -0.802061,0.674984 -1.136216,0.853817 -0.334154,0.178834 -1.03615,1.17226 -1.55999,2.207613 -1.739181,3.437428 -1.154522,6.977168 1.46993,8.899472 0.992995,0.727332 1.495661,0.847474 3.066993,0.733051 1.033639,-0.07527 2.375444,-0.393397 2.981784,-0.706949 z M 163.42431,85.294436 c -0.67974,-0.327829 -0.79375,-0.659959 -0.79375,-2.312377 0,-1.493707 0.0996,-1.851106 0.44098,-1.582233 0.68766,0.541634 2.29314,0.832951 3.25711,0.591009 1.94179,-0.487359 3.00195,-4.466774 1.80609,-6.779327 -1.11383,-2.153902 -3.43069,-3.032432 -4.75165,-1.801777 l -0.75253,0.701086 v -0.911673 c 0,-0.860108 -0.0748,-0.89837 -1.32291,-0.676508 -1.39724,0.248373 -2.41276,0.85514 -1.43122,0.85514 0.30909,0 0.65834,0.251107 0.77611,0.55802 0.32129,0.837255 0.25803,10.799639 -0.0673,10.598577 -0.15479,-0.09566 -0.50099,-0.03823 -0.76935,0.127617 -0.34131,0.210944 -0.0712,0.371627 0.89879,0.53478 0.76269,0.128277 1.54546,0.287073 1.73948,0.35288 0.19403,0.0658 0.67028,0.121437 1.05834,0.12362 0.65042,0.0037 0.64353,-0.02593 -0.0882,-0.378834 z m 0.32509,-4.523108 c -1.09648,-0.66681 -1.11884,-0.733203 -1.11884,-3.32329 0,-2.409441 0.0757,-2.692495 0.85719,-3.204538 0.78561,-0.514749 0.93071,-0.513482 1.73749,0.01513 1.99955,1.310153 2.20082,5.824178 0.30493,6.838826 -0.49522,0.265035 -0.94374,0.182891 -1.78077,-0.326143 z m 15.12269,2.770484 c -0.61146,-0.656319 -0.7193,-1.239834 -0.7193,-3.891926 0,-2.906412 0.0539,-3.139785 0.78795,-3.411329 0.75357,-0.278765 0.75742,-0.300235 0.0882,-0.49203 -0.38487,-0.110299 -1.41414,-0.29875 -2.28727,-0.418779 -1.40273,-0.192835 -1.51564,-0.160514 -0.97013,0.277703 0.98369,0.790219 0.7373,1.441295 -1.14653,3.029769 l -1.76389,1.487332 v -2.325423 c 0,-2.064826 0.0859,-2.357197 0.76645,-2.608954 0.61587,-0.227824 0.33189,-0.369027 -1.4454,-0.718686 -2.14498,-0.422 -3.30095,-0.336387 -1.81708,0.134571 0.67242,0.21342 0.73214,0.502168 0.73214,3.539984 0,2.93468 -0.0815,3.364731 -0.72326,3.814201 -0.69236,0.48495 -0.66599,0.516971 0.61736,0.749646 0.73734,0.133681 1.7375,0.321613 2.22257,0.417629 0.75614,0.149669 0.79388,0.118575 0.26458,-0.218006 -1.23221,-0.783555 -0.80177,-1.60479 2.11667,-4.038332 l 0.79375,-0.661871 v 2.323959 c 0,2.094078 -0.0785,2.350925 -0.79375,2.596564 -0.64478,0.221439 -0.39648,0.351106 1.32291,0.690876 1.16417,0.23005 2.24192,0.435579 2.395,0.456724 0.15308,0.02117 -0.0454,-0.30898 -0.44097,-0.733622 z M 69.283463,82.916986 c 1.083455,-0.411932 2.796325,-2.89596 2.607871,-3.781975 -0.109763,-0.516047 -0.252045,-0.424586 -0.725441,0.466322 -0.81854,1.540464 -2.322576,2.022758 -3.698523,1.185997 -0.922923,-0.561266 -1.802461,-2.283718 -1.381227,-2.704952 0.08307,-0.08307 1.500251,-0.398773 3.149297,-0.701569 2.773256,-0.509221 2.984133,-0.607282 2.80991,-1.306647 -0.204152,-0.819495 -1.137013,-2.337117 -1.137013,-1.84974 0,0.163942 -0.226092,0.11044 -0.502427,-0.118897 -0.688096,-0.57107 -2.906938,-0.116501 -4.007372,0.820977 -1.998387,1.70246 -2.453792,5.164938 -0.940304,7.149225 0.958321,1.256425 2.082807,1.503726 3.825229,0.841259 z M 66.56331,76.185474 c 0.716481,-1.212902 1.980371,-1.688793 2.762109,-1.040006 0.959746,0.796519 0.565034,1.340167 -1.256668,1.730855 -0.979689,0.210104 -1.861789,0.382009 -1.960224,0.382009 -0.09843,0 0.106221,-0.482784 0.454783,-1.072858 z m 9.031464,4.987177 c 0.45078,-0.763107 0.60523,-1.83292 0.60523,-4.192188 0,-2.986726 0.04533,-3.179766 0.79375,-3.380335 2.050104,-0.549409 2.061725,-0.5293 1.952618,3.378423 -0.0976,3.495466 -0.12633,3.608694 -0.982479,3.871446 -0.495438,0.152051 0.03126,0.183208 1.201832,0.0711 2.726581,-0.261137 3.399939,-0.512283 2.382556,-0.888637 -0.702328,-0.259807 -0.762166,-0.526888 -0.762166,-3.40179 0,-2.669332 0.105653,-3.233258 0.731665,-3.905201 l 0.731664,-0.785346 -0.819859,0.183723 c -0.450924,0.101049 -2.231334,0.420479 -3.956473,0.709841 -3.44126,0.577215 -3.8014,0.718679 -2.710805,1.064821 0.653725,0.207487 0.732141,0.510745 0.732141,2.831469 0,1.429501 -0.155988,3.009374 -0.34664,3.510827 -0.308631,0.811762 -0.425855,0.862633 -1.069096,0.463938 -0.599747,-0.371736 -0.779632,-0.357915 -1.059071,0.08137 -0.625425,0.983192 -0.379416,1.411111 0.811244,1.411111 0.904805,0 1.291266,-0.224479 1.763889,-1.024569 z m 83.155236,-3.277968 c 0,-0.837336 -0.15146,-0.805604 -1.21072,0.253658 -0.86519,0.865191 -0.92662,0.874716 -2.20277,0.341499 -0.72203,-0.301678 -1.33269,-0.583121 -1.35704,-0.625426 -0.40954,-0.711588 -1.2267,-2.755762 -1.2267,-3.068676 0,-0.263271 0.35572,-0.347659 0.97014,-0.230152 0.53358,0.102044 1.68452,0.285002 2.55764,0.406576 0.87313,0.121575 1.8565,0.296722 2.18527,0.389216 0.50552,0.142223 0.55202,0.01577 0.30133,-0.81952 -0.16305,-0.543232 -0.40167,-1.245524 -0.53028,-1.560653 -0.38714,-0.948588 -2.35421,-1.789621 -3.88525,-1.661157 -3.42672,0.287525 -4.15971,5.675549 -1.12849,8.295305 1.41143,1.219828 3.01951,1.206281 4.38034,-0.0369 0.63059,-0.576079 1.14653,-1.333772 1.14653,-1.683766 z m -4.00324,-3.863111 c -0.94059,-0.138818 -1.77239,-0.314611 -1.84844,-0.390655 -0.30619,-0.306194 0.79513,-1.297002 1.67803,-1.509646 0.75826,-0.182619 1.0567,-0.05118 1.53248,0.674945 0.83923,1.28083 0.58198,1.512263 -1.36207,1.225356 z m -67.864891,5.626036 c 0.741066,-0.527685 1.13448,-0.640485 1.230383,-0.352777 0.316964,0.950884 3.257187,-0.02286 3.257187,-1.078724 0,-0.291476 -0.117405,-0.285927 -0.423334,0.02 -0.825835,0.825835 -0.987777,0.387583 -0.987777,-2.67317 0,-3.722161 -0.464916,-4.664607 -2.301092,-4.664607 -2.363227,0 -4.025128,1.27859 -4.044093,3.111341 -0.0091,0.875721 1.573068,0.308116 1.702914,-0.610937 0.166603,-1.179195 0.965088,-1.889813 1.818965,-1.618802 0.388652,0.123352 0.708805,0.332641 0.711454,0.465088 0.0028,0.132443 0.09654,0.582694 0.208644,1.000552 0.153412,0.571842 0.01235,0.820512 -0.570365,1.005455 -1.212885,0.384955 -3.303919,1.91256 -3.775731,2.758363 -1.46141,2.619816 0.688347,4.407333 3.172845,2.638216 z m -1.444611,-0.711457 c -0.735207,-0.735207 -0.455616,-1.946074 0.667582,-2.891183 1.621681,-1.364555 2.152277,-1.21533 2.021689,0.568586 -0.08975,1.22604 -0.295201,1.590534 -1.189966,2.111156 -0.833225,0.484812 -1.177395,0.533351 -1.499305,0.211441 z m 64.405102,0.04781 c -0.52272,-0.304454 -0.61736,-0.899428 -0.61736,-3.880898 0,-3.028064 0.0865,-3.554557 0.61736,-3.758593 0.52243,-0.200783 0.48174,-0.275043 -0.26459,-0.482928 -2.11962,-0.590409 -2.31859,-0.460692 -3.57307,2.329459 -0.65418,1.454996 -1.28923,2.645621 -1.41121,2.645833 -0.12198,2.12e-4 -0.41381,-0.515553 -0.64851,-1.146143 -0.2347,-0.630591 -0.76363,-1.940278 -1.17539,-2.910417 -0.41177,-0.970139 -0.75494,-1.788728 -0.7626,-1.819084 -0.008,-0.03037 -0.80769,-0.164885 -1.77783,-0.298951 -1.70169,-0.235158 -1.7359,-0.223182 -0.97014,0.339785 0.71983,0.529188 0.79375,0.875509 0.79375,3.718528 0,2.750005 -0.0879,3.196558 -0.71578,3.636345 -0.6815,0.477344 -0.65193,0.511905 0.61736,0.721677 2.11639,0.349765 2.36533,0.286481 1.53123,-0.389272 -0.67853,-0.54972 -0.75046,-0.907256 -0.65644,-3.263195 l 0.10558,-2.645833 1.47281,3.342559 c 0.81005,1.838406 1.6038,3.385569 1.76389,3.438133 0.16009,0.05257 0.59293,-0.657835 0.96187,-1.57867 0.36893,-0.920834 1.04212,-2.309244 1.49596,-3.085355 l 0.82518,-1.411111 0.003,2.404441 c 0.004,2.544064 -0.45535,3.947665 -1.16089,3.550906 -0.28909,-0.162567 -0.31144,-0.117754 -0.0705,0.141358 0.317,0.340903 1.52236,0.585297 3.52778,0.715275 0.64486,0.0418 0.65244,0.01478 0.0882,-0.313849 z M 94.720838,78.726307 c 1.023891,-0.185212 1.241703,-0.3218 0.79375,-0.497766 -1.020417,-0.400837 -0.689307,-1.394195 1.146528,-3.439654 l 1.741431,-1.940278 0.01122,2.327342 c 0.01,2.070654 -0.07631,2.369559 -0.782521,2.710152 -0.762409,0.367697 -0.751964,0.3836 0.264583,0.402802 0.582084,0.01101 1.658246,-0.07915 2.391471,-0.200329 1.2693,-0.209772 1.29887,-0.244333 0.61737,-0.721677 -0.62787,-0.439787 -0.71578,-0.88634 -0.71578,-3.636345 0,-2.84177 0.0743,-3.189965 0.79375,-3.722744 0.77796,-0.576058 0.76568,-0.583554 -0.61736,-0.376664 -0.776107,0.116099 -1.807982,0.217882 -2.293051,0.22619 -0.808669,0.01383 -0.830651,0.05404 -0.264584,0.483747 0.939762,0.71338 0.748905,1.277609 -1.146527,3.389471 l -1.741432,1.940278 -0.01122,-2.392617 c -0.01013,-2.156791 0.06701,-2.424066 0.782521,-2.711668 0.736082,-0.295868 0.716862,-0.319197 -0.264583,-0.321078 -0.582083,-0.0011 -1.693334,0.117186 -2.469445,0.262897 -1.232443,0.231384 -1.310612,0.298821 -0.617361,0.532607 0.747677,0.252144 0.79375,0.459676 0.79375,3.575293 0,3.018077 -0.06863,3.355686 -0.784052,3.856785 l -0.784049,0.549169 0.872244,-0.02032 c 0.479735,-0.01118 1.507246,-0.135195 2.283357,-0.275583 z m 43.391672,-1.115198 c -0.11992,-0.194027 -0.4071,-0.352986 -0.63819,-0.353243 -0.45721,-3.53e-4 -1.31362,-1.785221 -3.47004,-7.231479 -2.06267,-5.209448 -2.4978,-6.173611 -2.78621,-6.173611 -0.14349,0 -0.52244,0.653652 -0.8421,1.452559 -1.72117,4.301628 -4.96004,10.894663 -5.35207,10.894663 -0.24843,0 -0.54108,0.144618 -0.65032,0.321374 -0.10924,0.176756 0.76319,0.375193 1.93873,0.440972 2.09115,0.117013 2.1207,0.106133 1.36673,-0.503202 -0.72588,-0.586627 -0.74151,-0.699322 -0.2692,-1.940278 l 0.50144,-1.317477 h 2.58442 2.58441 l 0.65333,1.663245 c 0.64983,1.654323 0.64933,1.666046 -0.0926,2.185727 -0.70015,0.490406 -0.61826,0.530394 1.3337,0.651301 1.14381,0.07085 2.36684,0.158835 2.71784,0.195524 0.35099,0.03669 0.54006,-0.09205 0.42015,-0.286075 z m -9.34963,-5.55625 c -7e-4,-0.14552 0.43017,-1.280382 0.95717,-2.521916 l 0.95818,-2.257333 0.95609,2.080944 c 1.34136,2.919501 1.32774,2.962889 -0.93015,2.962889 -1.06715,0 -1.94073,-0.119063 -1.94129,-0.264584 z m -21.30308,5.313807 c 1.39509,-0.196084 1.55628,-0.283312 0.84298,-0.45617 -0.86047,-0.208523 -0.88439,-0.301374 -0.98248,-3.814501 -0.0868,-3.108074 -0.0233,-3.600774 0.46417,-3.600774 0.88169,0 1.92942,0.677227 1.92942,1.247133 0,0.284215 0.15875,0.516755 0.35278,0.516755 0.46005,0 0.45946,-2.009094 -7e-4,-2.293471 -0.41696,-0.25769 -6.82828,0.168504 -7.32838,0.487154 -0.49778,0.317168 -0.92054,2.511873 -0.48386,2.511873 0.19636,0 0.4685,-0.357187 0.60474,-0.79375 0.30091,-0.964216 0.78129,-1.310389 1.82831,-1.317516 0.76475,-0.0052 0.79375,0.110593 0.79375,3.169599 0,2.704631 -0.10453,3.279528 -0.70556,3.880556 l -0.70555,0.705555 h 0.8327 c 0.45799,0 1.60893,-0.1091 2.55764,-0.242443 z m 9.97866,-1.357333 c 0.60218,-0.685846 1.09488,-1.57576 1.09488,-1.977584 0,-0.655049 -0.10583,-0.617301 -1.02348,0.365051 -1.1095,1.187725 -1.64456,1.311504 -2.99987,0.693984 -0.81478,-0.371239 -1.97387,-2.186467 -1.97387,-3.09124 0,-0.252525 1.0897,-0.387657 3.12608,-0.387657 h 3.12608 l -0.16695,-0.873315 c -0.28257,-1.478188 -1.7601,-2.654462 -3.33429,-2.654462 -1.856,0 -2.61294,0.46319 -3.45533,2.114408 -1.7952,3.518881 -0.19142,7.023492 3.2255,7.048426 1.03699,0.0076 1.49863,-0.232364 2.38125,-1.237611 z m -4.54021,-5.826037 c 0.21283,-0.397672 0.77339,-0.899111 1.2457,-1.114309 0.70142,-0.319584 0.98827,-0.274051 1.56573,0.248547 1.25371,1.134593 0.89759,1.588798 -1.2457,1.588798 -1.85911,0 -1.93414,-0.03464 -1.56573,-0.723036 z M 98.777782,67.423544 c 1.142468,-0.832863 1.388878,-2.159657 0.401088,-2.159657 -0.388476,0 -0.802584,0.303298 -0.920239,0.673996 -0.117655,0.370699 -0.595538,0.924045 -1.061967,1.22966 -0.762423,0.499558 -0.90273,0.500987 -1.389571,0.01415 -0.297836,-0.297836 -0.68412,-0.796336 -0.858414,-1.107775 -0.448821,-0.801998 -1.462564,-0.308152 -1.462564,0.712491 0,0.516724 0.304959,0.992473 0.79375,1.238288 1.039795,0.522923 3.386156,0.209328 4.497917,-0.60115 z M 112.44792,8.7911871 c -1.72758,-1.0062206 0.1007,-3.8796799 2.83261,-4.4519426 1.6942,-0.3548916 7.28086,-0.3548916 8.97506,0 2.78378,0.5831279 4.58699,3.4940832 2.76761,4.4677876 -0.89739,0.480266 -13.74749,0.4662964 -14.57528,-0.015843 z"
         id="path1876"
         sodipodi:nodetypes="ssssssssscscssscsssscsssssscssssssssssssssssccsssssssscssssccsccssssssssssccssssscssssscsssccssssscsssssssssssssssssssssssssssssssscssssssssssscsssscsssssssssssssccscsssssssssssscsssscssssscsscsccsssscsssssssssssssssssscsscscssssssssssscsssssscsscsscsccssssssscssscssssscccsscssssssssssscccssscsssssssssssssssccsssscsssssssssssssssssscsssssscsscsscsssssscssssssssssssccscsscssssssssssssssssssscssssssssscssssssssssscsssssssssscssssssssssssscssssscsssssssssssssssssssssssssscsssssssscssscsssssssssssscsssssssssscssssssssssssssssssssssssssssssscsssssssssssssssssssssssssssssssssssscsscsssssccsscsssssssscssssssscssssccssscsssscsssssscsssscssssssscsssscsssssssscccsssssssscssscsssssssssssscsscsssssscssscssssssssssssssssssssss" />
      <path
         style="display:inline;fill:#000000;stroke-width:0.352778"
         d="m 220.11466,194.90429 c -4.40224,-1.06925 -9.09595,-3.26436 -18.64686,-8.72058 -17.99428,-10.27972 -35.00361,-17.65354 -48.8914,-21.19521 -13.56143,-3.45845 -24.60282,-4.82491 -38.99963,-4.82654 -20.123773,-0.002 -31.67828,2.26139 -51.311489,10.05251 -13.506828,5.35996 -20.494856,8.80076 -32.631946,16.06751 -11.434221,6.84592 -15.067526,8.63632 -17.45919,8.60346 -2.8082163,-0.0386 -5.3115028,-1.72356 -6.412873,-4.31652 -1.5243719,-3.58884 -1.2671715,-8.39207 1.2856821,-24.01017 0.9715836,-5.94405 1.8502596,-11.16455 1.9526131,-11.60111 0.1730453,-0.73808 0.068098,-0.79385 -1.496318,-0.79507 -2.129922,-0.002 -3.6579342,-0.91005 -4.493789,-2.67148 C 2.4742397,150.3632 2.4061357,149.602 2.5875237,146.77513 3.2909226,135.81291 13.156006,77.243349 15.900821,67.733332 19.212162,56.260459 23.665127,47.663021 31.066414,38.452777 43.214779,23.335218 55.292141,16.86017 79.071322,12.715857 88.211749,11.122833 103.03694,9.5249998 108.67707,9.5249998 h 1.99713 l -0.36397,-1.3636261 c -0.48004,-1.7984664 0.42484,-3.4131423 2.5967,-4.633596 1.48021,-0.8317892 1.87039,-0.8819444 6.86113,-0.8819444 4.99074,0 5.38092,0.050155 6.86113,0.8819444 2.13433,1.1993647 3.07516,2.8410224 2.61539,4.5635872 l -0.34529,1.2936174 6.54689,0.4221088 c 12.85962,0.8291209 26.22455,2.8061529 36.13112,5.3447639 16.31487,4.18077 26.2828,10.537205 36.53963,23.300922 7.40129,9.210244 11.85425,17.807682 15.16559,29.280555 2.74482,9.510017 12.6099,68.079578 13.3133,79.041798 0.18139,2.82687 0.11329,3.58807 -0.42193,4.71596 -0.75361,1.58811 -2.35763,2.66964 -3.96208,2.67148 -1.12745,0.001 -1.14693,0.028 -0.9644,1.32423 1.60349,11.38708 2.38361,26.93069 1.63192,32.51549 -0.74912,5.56572 -2.76119,7.38557 -8.15988,7.38037 -1.4552,-10e-4 -3.52736,-0.21667 -4.60479,-0.47837 z m 8.40952,-1.83413 c 1.43006,-0.71147 2.38058,-2.34682 2.64414,-4.54915 l 0.1735,-1.44981 -1.47073,1.47072 c -2.74158,2.74159 -7.37505,3.04846 -13.44191,0.89025 -4.09902,-1.45817 -5.91226,-2.38571 -14.55464,-7.4452 -20.53719,-12.02304 -39.8452,-19.51244 -61.2294,-23.75035 -9.56777,-1.89613 -12.3977,-2.11166 -27.57986,-2.10053 -15.415783,0.0113 -19.662484,0.36844 -28.927776,2.43272 -7.985436,1.77913 -22.326552,6.97209 -34.588131,12.52447 -8.281455,3.75007 -10.403833,4.87818 -20.420755,10.85431 -11.374036,6.78578 -14.909563,8.55289 -17.108568,8.55109 -1.696148,-0.001 -3.4651204,-0.8429 -4.6903791,-2.23125 l -0.6760616,-0.76605 0.2224462,1.05834 c 0.6019955,2.86411 3.2904165,5.00595 5.8521615,4.66234 1.923004,-0.25793 6.257872,-2.54047 16.905118,-8.90146 14.321275,-8.55597 28.757387,-15.09622 45.063193,-20.41577 12.969523,-4.23113 25.675142,-5.81908 43.131252,-5.39054 21.69004,0.53249 40.22613,4.77715 60.32501,13.81408 5.91475,2.65942 17.71482,8.7072 23.45972,12.02361 14.69917,8.48551 22.37874,10.97335 26.91167,8.71818 z m -1.17602,-4.52596 c 1.67045,-0.79267 2.5349,-2.07498 3.23486,-4.79849 0.94106,-3.66162 0.30872,-19.66867 -1.1312,-28.63524 -0.18435,-1.14795 -0.59606,-1.64832 -2.79234,-3.39362 -4.5448,-3.06994 -9.34922,-6.04522 -13.13204,-7.79391 -18.21,-7.58084 -50.00141,-15.48844 -75.06216,-18.67049 -14.44282,-1.83385 -25.54828,-1.87627 -42.333331,-0.1617 -16.536219,1.68916 -34.346682,5.18191 -46.792743,9.17637 -15.207915,4.88085 -33.579207,13.57028 -37.412247,17.69559 -0.819366,0.88185 -1.074737,2.03021 -2.9170441,13.11747 -1.110486,6.68305 -2.0979576,13.58868 -2.1943816,15.34583 -0.1643162,2.99436 -0.1124825,3.31654 0.8261033,5.13473 1.2566012,2.43424 2.9601014,3.66714 4.6860434,3.39151 1.997933,-0.31907 6.377469,-2.61343 16.247321,-8.51167 12.126247,-7.24667 21.590502,-11.81386 35.454169,-17.10922 18.80005,-7.18086 28.679688,-8.98211 49.2125,-8.97242 11.49896,0.005 16.49171,0.36336 24.69445,1.77037 21.83473,3.74529 43.44357,11.95689 65.44028,24.86804 7.53445,4.42241 8.8541,5.11767 12.31484,6.48804 4.99691,1.97866 8.95991,2.33863 11.65692,1.05881 z M 10.187799,151.24596 c 2.014251,-1.81962 5.621238,-4.29472 8.597619,-5.89966 l 2.734027,-1.47426 0.0021,-19.46033 c 0.0029,-26.802077 0.554199,-39.231496 2.150596,-48.48467 2.437614,-14.129113 7.275907,-25.462797 15.591336,-36.522656 7.349984,-9.77578 16.143122,-16.733833 26.888356,-21.276885 2.209395,-0.934126 3.972024,-1.74347 3.916952,-1.798543 C 69.873505,16.133677 62.29031,18.38954 58.95167,19.636095 50.050074,22.959696 42.888868,27.76081 36.773154,34.505307 24.550656,47.984465 19.126506,58.940656 15.519829,77.43472 10.639828,102.45804 4.2333335,142.62095 4.2333335,148.19081 c 0,1.81419 0.6894224,3.65021 1.4918832,3.97308 0.2466171,0.0992 1.0641542,0.19294 1.8167489,0.20825 1.0726974,0.0218 1.6443759,-0.22149 2.6458334,-1.12618 z m 223.158911,0.9349 c 0.9119,-0.34993 1.6033,-2.07059 1.6033,-3.99005 0,-5.56986 -6.40649,-45.73277 -11.28649,-70.75609 -3.60668,-18.494064 -9.03083,-29.450255 -21.25334,-42.929413 -6.11571,-6.744497 -13.27692,-11.545611 -22.1785,-14.869212 -3.33864,-1.246555 -10.92183,-3.502418 -11.11711,-3.307139 -0.0551,0.05507 1.70756,0.864417 3.91695,1.798543 10.74524,4.543052 19.53837,11.501105 26.88836,21.276885 8.31543,11.059859 13.15372,22.393543 15.59133,36.522656 1.59834,9.264452 2.14773,21.680999 2.1506,48.60559 l 0.002,19.58124 1.05806,0.56676 c 1.50868,0.80813 8.15435,5.02695 9.70166,6.41977 1.13288,1.01977 1.70105,1.27312 2.88156,1.28491 0.80875,0.008 1.72744,-0.0839 2.04152,-0.20445 z m -17.41382,-45.2892 c -0.21228,-9.216315 -0.55011,-18.66194 -0.75073,-20.990273 -1.66515,-19.32518 -7.31987,-34.099926 -18.22746,-47.624999 -6.341,-7.862654 -12.88752,-13.046393 -22.05207,-17.46152 -12.24544,-5.899383 -26.43847,-8.78287 -46.16979,-9.379953 l -7.96856,-0.241134 -0.23352,5.39531 c -0.12845,2.96742 -0.23353,6.401945 -0.23353,7.632276 0,2.00178 -0.0742,2.236966 -0.70556,2.236966 -0.68357,0 -0.70555,-0.235186 -0.70555,-7.5492 v -7.5492 l -1.63376,-0.129937 c -2.99803,-0.238443 -14.34086,0.364707 -20.891589,1.110902 -13.474351,1.534867 -22.777246,3.992233 -32.080057,8.47397 -9.164546,4.415127 -15.711068,9.598866 -22.052073,17.46152 -10.907585,13.525073 -16.562304,28.299819 -18.227452,47.624999 -0.635684,7.377539 -1.161521,37.018863 -0.840177,47.360593 l 0.298711,9.61338 2.293056,-1.09304 c 15.284599,-7.28573 33.550096,-12.76856 53.382152,-16.02394 14.067234,-2.3091 21.920899,-3.02005 35.694239,-3.23123 12.95175,-0.19858 16.47143,0.0262 29.10417,1.85924 22.73526,3.29883 54.15583,11.27361 68.96806,17.50462 l 2.82222,1.18722 0.29762,-9.71481 c 0.18404,-6.00733 0.15032,-16.10979 -0.0884,-26.47176 z M 127.0232,8.8070321 c 1.81938,-0.9737044 0.0161,-3.8846597 -2.76761,-4.4677876 -1.6942,-0.3548916 -7.28086,-0.3548916 -8.97506,0 -2.73191,0.5722627 -4.56019,3.445722 -2.83261,4.4519426 0.82779,0.4821414 13.67789,0.496111 14.57528,0.015843 z"
         id="path1874"
         sodipodi:nodetypes="ssscsssssscsssssscssssscsssssscsscssscsssssssscscsssssssssssccsssssssssscsssssscsssssssssssssssssssssccsscsscssssccssscsssssscssscscsccssssss" />
      <path
         style="display:inline;fill:none;stroke:#000000;stroke-width:0.264583;stroke-miterlimit:4;stroke-dasharray:2.11667, 1.05833;stroke-dashoffset:0;stroke-opacity:1"
         d="m 208.61518,174.59965 c -4.26258,0 -7.88398,-2.21221 -16.31303,-6.41885 -15.11264,-7.5422 -31.09469,-13.25546 -45.79643,-16.3713 -11.16834,-2.36699 -17.98106,-3.15683 -29.22073,-3.38772 -11.48477,-0.23592 -22.054723,0.52374 -30.289375,2.17689 -6.4484,1.29456 -17.266861,4.63146 -27.607687,8.51546 -7.889131,2.96315 -11.269992,4.46735 -20.062054,8.92591 -11.98219,6.07632 -14.066393,6.86799 -16.375728,6.22016 -1.525315,-0.42789 -2.502516,-1.53709 -3.167025,-2.77289 -0.517696,-0.96277 -0.546701,-2.22196 -0.441605,-3.24953 l 2.367791,-23.151 12.080859,-6.13824 -0.602523,18.20255 c -0.03441,1.03949 0.144846,2.23219 0.841317,3.00463 0.810289,0.89867 1.564281,1.50777 3.376026,1.33419 0.937975,-0.0899 3.167446,-1.16429 9.802864,-3.98323 5.329434,-2.26413 10.810471,-4.55025 12.180078,-5.08028 6.38448,-2.47075 26.04024,-8.2924 30.66054,-9.08104 6.47856,-1.10584 15.738912,-1.69233 24.435052,-1.54755 8.77031,0.14601 12.6141,0.4126 20.23284,1.40326 10.63866,1.38335 18.80427,3.0958 28.97346,6.07619 7.10712,2.08295 11.93757,3.69344 17.11765,5.72808 5.22876,2.05376 9.24075,4.05002 13.82924,6.01822 2.11119,0.90557 4.28812,1.73965 6.46822,1.40177 1.15539,-0.17907 2.19582,-0.69319 3.04228,-1.7457 0.27819,-0.34592 0.55806,-0.98418 0.71515,-1.52239 0.22382,-0.76686 0.31403,-1.67028 0.30785,-2.37672 l -0.14835,-16.94639 12.4215,5.00735 0.62378,9.4081 c 0.4918,7.41755 1.18907,13.61313 0.45016,15.70007 -1.26155,3.56305 -5.06462,4.65 -9.90207,4.65 z"
         id="path2400"
         sodipodi:nodetypes="ssssssssasccsacssssssssasasccssss" />
      <path
         sodipodi:nodetypes="ssssssssasccsacssssssssssccscss"
         id="path2402"
         d="m 205.19275,170.22342 c -2.61614,-0.36497 -7.42994,-2.36573 -15.6586,-6.22465 -14.55926,-6.82772 -29.93326,-11.82954 -44.0545,-14.68775 -10.72752,-2.17152 -17.27132,-2.89599 -28.06723,-3.10775 -11.03136,-0.21644 -21.250189,0.3481 -29.15976,1.86454 -6.193825,1.18776 -16.585189,4.24872 -26.517774,7.81196 -7.577681,2.71821 -10.825072,4.0982 -19.270033,8.18829 -11.509154,5.57425 -12.981913,5.63909 -15.200082,5.04472 -1.465084,-0.39253 -2.182353,-0.83179 -2.777395,-1.75014 -0.545748,-0.84227 -0.49304,-2.03527 -0.424178,-2.98084 l 1.546701,-21.23809 11.939005,-6.06669 -0.10788,16.43383 c -0.0063,0.95426 0.22618,1.99602 0.8081,2.75633 0.618175,0.80769 0.861959,1.75271 2.602178,1.59347 0.900951,-0.0827 3.042405,-1.0681 9.415871,-3.65394 5.119032,-2.07724 10.383694,-4.1742 11.699224,-4.66053 6.132438,-2.26668 25.012213,-7.60724 29.450113,-8.33064 6.222796,-1.01441 15.11751,-1.55246 23.47035,-1.41966 8.42423,0.13401 12.11608,0.37852 19.43414,1.28731 10.21863,1.2689 18.0619,2.83992 27.82954,5.57402 13.65316,3.82182 19.33439,6.10293 29.72524,10.5329 3.99269,1.70222 5.38736,1.76633 6.8463,1.22574 1.04572,-0.38747 1.6232,-1.86574 1.7802,-2.83263 0.22087,-1.36027 0.25658,-2.51019 0.25218,-3.25866 -0.0259,-4.40275 -0.08,-13.20823 -0.08,-13.20823 l 12.82345,3.86249 0.94159,19.80392 c 0.0828,1.741 -0.24266,4.17609 -1.4188,5.17754 -3.35312,2.89055 -5.21858,2.62718 -7.82796,2.26314 z"
         style="display:inline;fill:none;stroke:#000000;stroke-width:0.248361;stroke-miterlimit:4;stroke-dasharray:1.98689, 0.993444;stroke-dashoffset:0;stroke-opacity:1" />
      <path
         style="display:inline;fill:none;stroke:#000000;stroke-width:0.229218;stroke-miterlimit:4;stroke-dasharray:1.83374, 0.916872;stroke-dashoffset:0;stroke-opacity:1"
         d="m 200.71293,165.81021 c -5.09483,-1.50431 -6.52514,-2.29065 -14.23257,-5.74344 -13.81917,-6.19073 -28.36706,-10.68179 -41.81042,-13.23923 -10.21225,-1.9428 -16.50809,-2.78937 -26.78582,-2.97889 -10.50183,-0.19371 -20.166983,0.42984 -27.696815,1.78658 -5.896453,1.06265 -15.78893,3.80144 -25.244628,6.98951 -7.21388,2.4322 -10.305361,3.66697 -18.344872,7.32649 -10.956604,4.98741 -12.862403,5.63725 -14.974087,5.10545 -1.394739,-0.3512 -1.863656,-1.35281 -2.36676,-2.34216 -0.407579,-0.80149 -0.444917,-1.81916 -0.40381,-2.66713 l 0.908345,-18.73784 11.348331,-4.91285 0.193642,13.68383 c 0.01208,0.85379 0.217911,1.8048 0.769303,2.46629 0.6275,0.75279 0.946522,1.50905 2.603188,1.36656 0.857693,-0.0742 2.896333,-0.9557 8.963817,-3.26948 4.873252,-1.85849 9.885161,-3.73475 11.137538,-4.16992 5.838019,-2.02795 23.811356,-6.80636 28.036182,-7.45355 5.924065,-0.90774 14.391816,-1.38914 22.343396,-1.27031 8.01983,0.11987 11.53461,0.33865 18.50129,1.15189 9.7281,1.13527 17.19471,2.54078 26.49335,4.98722 12.99769,3.4194 18.10653,5.05448 27.9013,9.2257 2.1588,0.91936 3.71551,1.54442 5.63851,1.35102 2.3293,-0.23975 2.45161,-2.53839 2.47104,-4.34512 l 0.16279,-13.02095 13.01518,3.80802 0.49322,19.56435 c 0.0622,2.46853 -0.92471,3.67742 -2.36176,4.66219 -1.86772,1.27991 -4.58737,1.31694 -6.75888,0.67577 z"
         id="path2404"
         sodipodi:nodetypes="ssssssssasccsacsssssssccccsas" />
    </g>
  </g>
</svg>
