<?xml version="1.0" encoding="UTF-8" standalone="no"?>
<svg
   xmlns:dc="http://purl.org/dc/elements/1.1/"
   xmlns:cc="http://creativecommons.org/ns#"
   xmlns:rdf="http://www.w3.org/1999/02/22-rdf-syntax-ns#"
   xmlns:svg="http://www.w3.org/2000/svg"
   xmlns="http://www.w3.org/2000/svg"
   xmlns:sodipodi="http://sodipodi.sourceforge.net/DTD/sodipodi-0.dtd"
   xmlns:inkscape="http://www.inkscape.org/namespaces/inkscape"
   sodipodi:docname="the-donald-1.svg"
   inkscape:version="1.0 (4035a4f, 2020-05-01)"
   id="svg578"
   version="1.1"
   viewBox="0 0 158.75 138.90625"
   height="525"
   width="600">
  <defs
     id="defs572" />
  <sodipodi:namedview
     fit-margin-bottom="0"
     inkscape:pagecheckerboard="true"
     inkscape:window-maximized="0"
     inkscape:window-y="23"
     inkscape:window-x="0"
     inkscape:window-height="855"
     inkscape:window-width="1440"
     units="px"
     showgrid="false"
     inkscape:document-rotation="0"
     inkscape:current-layer="layer1"
     inkscape:document-units="mm"
     inkscape:cy="260.29939"
     inkscape:cx="339.12549"
     inkscape:zoom="1.23"
     inkscape:pageshadow="2"
     inkscape:pageopacity="0.0"
     borderopacity="1.0"
     bordercolor="#666666"
     pagecolor="#ffffff"
     id="base" />
  <metadata
     id="metadata575">
    <rdf:RDF>
      <cc:Work
         rdf:about="">
        <dc:format>image/svg+xml</dc:format>
        <dc:type
           rdf:resource="http://purl.org/dc/dcmitype/StillImage" />
        <dc:title></dc:title>
      </cc:Work>
    </rdf:RDF>
  </metadata>
  <g
     id="layer1"
     inkscape:groupmode="layer"
     inkscape:label="Layer 1">
    <g
       transform="matrix(1.0222695,0,0,1.0222695,-7.5077809,-9.2098514)"
       id="g644">
      <path
         sodipodi:nodetypes="ssssscsccscsssssssscsssssssssscsscsaacassss"
         id="path650"
         d="m 151.16765,122.06451 c -0.14606,-0.23633 -0.55366,-1.3812 -0.90577,-2.54415 -1.15293,-3.80788 -2.97914,-5.61825 -7.05257,-6.99142 -4.16885,-1.40533 -6.85793,-1.7491 -10.79386,-1.3799 -8.51717,0.79894 -13.97101,-1.62234 -16.64671,-7.39046 -0.67826,-1.46215 -0.9159,-2.53827 -0.90524,-4.099283 0.0167,-2.451738 1.84941,-9.979243 3.43554,-14.11111 1.03206,-2.688491 1.0841,-3.072966 1.09834,-8.113888 0.0135,-4.767897 -0.0607,-5.433187 -0.74902,-6.721443 -1.58035,-2.957635 -4.26883,-4.800338 -8.6704,-5.94276 -1.7967,-0.466329 -2.2312,-0.466576 -3.79508,-0.0021 -2.7123,0.805469 -3.72515,2.112182 -6.822829,8.802408 -4.780612,10.32494 -5.85729,11.637965 -9.516982,11.606095 -3.525344,-0.03069 -7.390286,-2.573196 -7.767356,-5.109647 -1.15056,-7.739549 -1.794471,-9.208621 -5.956399,-13.589412 -3.462786,-3.644885 -4.333117,-5.158986 -4.8595,-8.454015 -0.400548,-2.507322 -0.29203,-4.011524 0.591344,-8.196922 0.740269,-3.507383 0.538716,-8.046525 -0.413653,-9.315844 -1.365057,-1.819342 -2.417689,-2.173785 -5.671655,-1.909759 -1.617426,0.131237 -4.177979,0.451012 -5.690115,0.710615 -22.114258,3.796509 -31.364341,5.103946 -38.027123,5.374844 -8.897477,0.361756 -12.8706086,-1.208186 -12.8750705,-5.087451 -0.00254,-2.20666 1.4823245,-3.033652 6.8677825,-3.824989 6.168129,-0.906347 5.935346,-0.79031 19.060067,-9.501032 5.626806,-3.734445 11.35469,-7.352158 12.728632,-8.039363 3.523231,-1.762217 8.83175,-3.926793 10.882508,-4.437399 7.491127,-1.865169 11.997891,-2.372791 24.013863,-2.704812 16.982762,-0.469262 26.755086,1.05887 39.274016,6.141414 7.97677,3.238479 16.07765,9.472384 18.63527,14.340488 2.41376,4.594274 2.6596,6.030795 2.92818,17.10972 l 0.24372,10.054166 2.72542,7.9375 c 3.8393,11.181527 4.12943,12.386707 4.4191,18.3563 l 0.2488,5.127134 2.78969,5.239882 c 1.53433,2.881937 2.12972,3.48232 3.2861,5.162893 0.99249,1.44238 2.34983,2.65051 3.13073,4.21757 0.27608,0.55401 0.99557,1.29262 0.52397,1.78149 -0.47159,0.48888 -2.11877,0.80234 -3.23067,0.83702 -0.88668,0.0276 -3.42256,-2.81433 -2.61285,-0.50562 0.73837,2.1053 0.43881,5.84548 -0.7692,9.45363 -1.109,3.31241 -2.77254,6.33203 -3.15102,5.71964 z"
         style="display:inline;fill:#daa520;stroke-width:0.352778" />
      <path
         sodipodi:nodetypes="cssssssssssssssscsscsscsssssssssssssscssssc"
         id="path648"
         d="m 67.431569,130.75054 c -4.227811,-0.68938 -7.33635,-1.95617 -15.142987,-6.17111 -2.841537,-1.5342 -6.086291,-3.06818 -7.210567,-3.40887 -1.124273,-0.34067 -2.623428,-1.12017 -3.331457,-1.73221 -1.602427,-1.38518 -1.66177,-2.46804 -0.360926,-6.58594 0.509516,-1.61291 0.926394,-3.10047 0.926394,-3.3057 0,-1.1031 -1.321705,-2.88475 -2.883474,-3.88694 -1.962343,-1.25923 -2.109896,-1.80123 -1.035888,-3.8051 1.120674,-2.090935 0.921293,-3.488586 -0.898389,-6.297659 -2.220343,-3.427585 -2.17346,-4.30964 0.363931,-6.847028 1.838551,-1.838554 1.95968,-2.066878 1.95968,-3.693962 0,-1.944326 0.176376,-1.563035 -3.611644,-2.236709 -1.30052,-0.231289 -2.88362,-0.995569 -3.518006,-1.381359 -1.052031,-0.639778 -1.137185,-0.822549 -0.968653,-2.079057 0.24684,-1.840322 2.064403,-5.532292 5.735755,-11.650891 4.490748,-7.484184 4.648658,-8.575216 1.826095,-12.616562 -0.876534,-1.255014 -1.681887,-2.359508 -1.684,-2.665788 -0.0021,-0.30628 0.583379,-1.200729 1.19542,-1.776305 1.442025,-1.356114 2.093868,-2.925885 2.094292,-5.043494 l -0.43198,-1.79036 5.509335,-0.743661 c 15.571942,-2.101931 18.11402,-2.919239 20.312036,-2.989805 2.202924,-0.07073 2.491229,0.0061 3.384904,0.901695 0.926206,0.928222 1.404299,1.130961 1.314649,3.908301 -0.052,1.611114 -0.431183,4.45712 -0.842624,6.1131 -0.556032,2.237965 -0.709205,3.578371 -0.59668,5.722283 0.220115,4.193734 1.770943,6.535409 5.723718,11.123203 3.672855,4.262905 4.56017,5.521083 5.269831,10.460318 0.509385,3.545319 0.522858,3.846244 2.242142,5.263423 3.138034,2.586632 7.006276,4.042887 9.327375,3.073069 2.771751,-1.15811 4.156687,-2.953803 7.160201,-9.093681 1.550538,-3.169673 3.269588,-6.775411 3.820118,-8.012752 1.57969,-3.550478 4.24302,-4.110258 8.57196,-2.648354 2.57678,0.870194 4.51689,2.395685 5.58348,4.39024 0.70119,1.31124 0.7913,2.007539 0.79099,6.111805 -3.4e-4,4.329318 -0.0777,4.853142 -1.18417,8.016875 -2.1325,6.097495 -3.37012,11.342319 -3.40516,14.430373 -0.0291,2.566032 0.3449,2.904162 1.40773,4.949052 2.31336,4.4507 6.34574,7.12132 11.458,7.99702 1.27679,0.21869 3.14503,1.12282 2.75376,0.66131 0,0 -9.11,6.17795 -12.57551,7.92023 -9.05954,4.55467 -19.334552,7.69337 -29.274721,8.94251 -3.255686,0.40913 -18.010745,0.76614 -19.77496,0.47849 z"
         style="display:inline;fill:#ff8c00;stroke-width:0.356306" />
      <path
         sodipodi:nodetypes="csssssssssssssssssssssssssssssssssscsscsccsssssccssscccscssscssssssccssssssssssssssssssssssssscccscscscsscsssssssssssssssssssscscscssssscc"
         id="path646"
         d="m 65.557002,131.95027 c -4.555942,-0.82292 -9.270557,-3.30374 -14.890553,-6.5004 -2.570299,-1.46199 -4.213667,-2.33308 -4.93889,-2.33818 -2.647191,-0.0186 -6.637874,-3.23425 -7.105188,-5.72525 -0.253481,-1.35118 0.268221,-3.64807 1.278333,-5.62805 1.186727,-2.32618 0.630579,-4.51395 -1.147481,-4.51395 -0.389121,0 -1.171532,-0.46404 -1.73869,-1.0312 -1.474191,-1.47419 -1.46287,-3.74427 0.02713,-5.44129 0.582083,-0.66296 1.058333,-1.354283 1.058333,-1.536282 0,-0.181994 -0.521606,-0.954785 -1.159125,-1.717315 -1.714962,-2.051243 -2.297074,-3.082773 -2.74619,-4.866375 -0.367267,-1.458545 -0.329011,-1.727408 0.418776,-2.943164 0.45263,-0.735895 1.435994,-2.00563 2.185248,-2.821637 0.749258,-0.816003 1.272498,-1.628926 1.162756,-1.80649 -0.109743,-0.177567 -0.956903,-0.396596 -1.882582,-0.486734 -2.774224,-0.270144 -4.873292,-1.403417 -5.737665,-3.097728 -0.724512,-1.42016 -0.729523,-1.523061 -0.160355,-3.292905 0.773465,-2.405119 4.009705,-8.583171 6.177339,-11.792676 3.622665,-5.36389 3.900058,-6.739205 1.913404,-9.486712 -3.111185,-4.302714 -3.256144,-4.913499 -1.545407,-6.511565 0.602608,-0.562917 1.219521,-1.023482 1.370919,-1.023482 0.431179,0 1.414001,-2.300517 1.414001,-3.309789 0,-1.307123 -1.07126,-1.455053 -5.737562,-0.7923 C 25.260464,46.495903 19.52623,46.934402 16.969558,46.571799 11.755925,45.832374 8.6218139,43.934101 7.7366168,40.979577 7.3418712,39.662033 7.3695515,39.28962 7.9698915,37.841062 c 0.9162451,-2.210806 2.6677495,-3.093973 7.5523315,-3.808145 2.037292,-0.297872 4.483724,-0.795861 5.436515,-1.106643 0.97657,-0.318539 5.281259,-2.945389 9.866946,-6.021107 22.125915,-14.840322 27.865729,-16.83829 50.489599,-17.5748845 7.547448,-0.2457319 18.198667,0.2606749 22.866157,1.0871595 6.65728,1.178823 15.65721,3.902775 20.94263,6.338569 2.68666,1.238155 8.4209,5.007947 11.91467,7.832923 2.42894,1.963981 5.39474,6.116453 6.52378,9.13408 1.80503,4.824376 1.88172,5.448034 1.82311,14.826002 l -0.0554,8.86152 2.81421,8.42459 c 3.88335,11.625188 4.24672,13.162364 4.49315,19.007923 l 0.20821,4.938888 2.65945,4.88484 c 1.46269,2.686663 3.20608,5.706093 3.47373,5.808803 8.61097,9.55534 -0.85049,7.76157 -1.56911,8.35636 -0.17859,0.19402 -0.50993,1.72915 -0.73633,3.4114 -0.22638,1.68224 -0.72645,3.97369 -1.11124,5.09212 -1.12213,3.2615 -4.47702,8.95897 -5.27541,8.95897 -0.146,0 -0.37098,-0.79546 -0.49995,-1.7677 -0.37038,-2.79202 -1.51939,-6.10103 -2.67011,-7.68955 -1.87131,-2.58327 -5.8417,-3.93398 -11.59066,-3.94309 l -3.29187,-0.005 -2.88175,2.08926 c -11.72748,8.50243 -23.87918,13.70663 -38.425651,16.22174 -2.795634,0.48337 -4.876533,1.0387 -14.021368,1.4596 -6.614176,0.30443 -10.442615,-0.54559 -11.348559,-0.70921 z m 16.532815,-1.44023 c 17.013782,-1.3955 29.139273,-5.52125 43.322693,-14.74073 l 3.52778,-2.29312 -3.47654,-0.82091 c -5.92094,-1.39812 -8.6602,-3.48329 -11.03434,-8.3995 -1.95625,-4.05089 -1.61252,-7.029953 2.09739,-18.178009 1.37836,-4.141886 1.46779,-4.65613 1.47243,-8.466666 0.004,-3.662486 -0.0864,-4.251794 -0.93448,-6.060951 -1.14523,-2.443049 -2.9877,-3.883159 -6.26249,-4.89489 -2.80237,-0.86578 -4.5979,-0.6659 -6.05609,0.674172 -0.60607,0.556976 -1.93634,2.950986 -3.30039,5.939529 -3.623167,7.938138 -5.639634,11.284266 -7.518105,12.475558 -3.097153,1.964154 -6.209556,1.650735 -9.985714,-1.005565 -2.69299,-1.894353 -3.068829,-2.578904 -3.681007,-6.704527 -1.154038,-9.085815 -9.650919,-12.229588 -10.861715,-20.318065 -0.314794,-2.239437 -0.253139,-2.906631 0.578372,-6.258792 0.612581,-2.469564 0.930727,-4.709583 0.930727,-6.55309 0,-2.535612 -0.084,-2.879859 -0.886778,-3.634027 -1.694399,-1.591808 -4.202733,-1.406959 -21.691001,1.598474 -4.171598,0.716908 -7.621648,1.33671 -7.666783,1.377336 -0.04513,0.04063 0.102154,0.561905 0.327304,1.158395 0.541581,1.434811 -0.374287,3.91444 -2.045205,5.537214 -0.659257,0.640264 -1.19865,1.37178 -1.19865,1.625589 0,0.25381 0.609078,1.269648 1.353506,2.257418 1.917777,2.544674 2.174272,3.130007 2.174272,4.961809 0,1.853215 -0.469329,2.876472 -3.764274,8.207074 -2.743014,4.43768 -5.301483,9.57302 -5.622876,11.286193 -0.175346,0.934678 -0.0735,1.374507 0.436319,1.884327 0.615148,0.615149 5.452224,2.091263 6.85285,2.091263 0.703464,0 1.039647,0.68599 1.039647,2.121415 0,0.747691 -0.449082,1.430567 -1.752152,2.664312 -2.922298,2.766832 -2.990568,4.025807 -0.435991,8.04051 1.587042,2.494153 1.687019,3.374347 0.621993,5.476074 -1.172146,2.31312 -1.142287,2.6591 0.306758,3.55466 1.816298,1.12254 3.376059,3.06253 3.376059,4.19907 0,0.54134 -0.396875,2.15113 -0.881945,3.57729 -1.061226,3.12014 -1.093526,4.05839 -0.190669,5.53912 0.785816,1.28878 1.938564,1.96209 4.979833,2.90863 1.174969,0.3657 4.070576,1.77978 6.434684,3.14241 6.088466,3.5093 10.480443,5.27815 14.99843,6.04056 2.45522,0.41432 9.303668,0.41022 14.416148,-0.01 z m 72.228853,-14.16475 c 1.20801,-3.60815 1.51247,-7.35006 0.7692,-9.45363 -0.97428,-2.75736 -0.70047,-2.5229 2.68475,0.0926 2.84733,-0.27915 3.36872,-0.33454 2.702,-1.52544 -0.66672,-1.19087 -2.35772,-3.51719 -2.95219,-4.07853 -0.27303,-0.27302 -1.99751,-3.100092 -3.53184,-5.982029 l -2.78969,-5.239882 -0.2488,-5.127134 c -0.28967,-5.969593 -0.5798,-7.174773 -4.4191,-18.3563 l -2.72542,-7.9375 -0.24372,-10.054166 C 143.29528,37.604404 143.04944,36.167883 140.63568,31.573609 138.07806,26.705505 129.97718,20.4716 122.00041,17.233121 109.48148,12.150577 99.709156,10.622445 82.726394,11.091707 70.710422,11.423728 66.203658,11.93135 58.712531,13.796519 c -2.050758,0.510606 -7.359277,2.675182 -10.882508,4.437399 -1.373942,0.687205 -7.101826,4.304918 -12.728632,8.039363 -13.124721,8.710722 -12.891938,8.594685 -19.060067,9.501032 -5.385458,0.791337 -6.8703204,1.618329 -6.8677825,3.824989 0.00446,3.879265 3.9775935,5.449207 12.8750705,5.087451 6.662782,-0.270898 15.912865,-1.578335 38.027123,-5.374876 1.512136,-0.259602 4.072689,-0.579378 5.690115,-0.710615 3.253966,-0.264025 4.306598,0.09042 5.671655,1.909759 0.952369,1.269319 1.153922,5.808461 0.413653,9.315845 -0.883374,4.185397 -0.991892,5.689599 -0.591344,8.196921 0.526383,3.295029 1.396714,4.80913 4.8595,8.454016 4.161928,4.38079 4.805839,5.849863 5.956399,13.589411 0.37707,2.536451 4.242012,5.078949 7.767356,5.109647 3.659692,0.03186 4.73637,-1.281154 9.516982,-11.606095 3.097679,-6.690225 4.110529,-7.996939 6.822829,-8.802408 1.56388,-0.464421 1.99838,-0.464174 3.79508,0.0021 4.40157,1.142421 7.09005,2.985124 8.6704,5.94276 0.68835,1.288256 0.76249,1.953545 0.74902,6.721442 -0.0143,5.040923 -0.0663,5.425398 -1.09834,8.113889 -1.58613,4.131867 -3.41881,11.659371 -3.43554,14.11111 -0.0107,1.561011 0.22698,2.637131 0.90524,4.099281 2.6757,5.76811 8.12954,8.1894 16.64671,7.39046 3.93593,-0.3692 6.62501,-0.0254 10.79386,1.3799 4.07343,1.37316 5.89964,3.18354 7.05257,6.99141 0.35211,1.16296 0.75971,2.30783 0.90577,2.54416 0.37848,0.61239 2.04202,-2.40722 3.15102,-5.71964 z"
         style="display:inline;fill:#000000;stroke-width:0.352778" />
    </g>
  </g>
</svg>
