<?xml version="1.0" encoding="UTF-8" standalone="no"?>
<svg
   xmlns:dc="http://purl.org/dc/elements/1.1/"
   xmlns:cc="http://creativecommons.org/ns#"
   xmlns:rdf="http://www.w3.org/1999/02/22-rdf-syntax-ns#"
   xmlns:svg="http://www.w3.org/2000/svg"
   xmlns="http://www.w3.org/2000/svg"
   xmlns:sodipodi="http://sodipodi.sourceforge.net/DTD/sodipodi-0.dtd"
   xmlns:inkscape="http://www.inkscape.org/namespaces/inkscape"
   inkscape:version="1.0 (4035a4f, 2020-05-01)"
   sodipodi:docname="tombstone-9.svg"
   id="svg25145"
   height="732"
   width="610"
   version="1.1"
   inkscape:export-xdpi="72.599998"
   inkscape:export-ydpi="72.599998">
  <sodipodi:namedview
     inkscape:current-layer="layer1"
     inkscape:window-maximized="0"
     inkscape:window-y="23"
     inkscape:window-x="0"
     inkscape:cy="163.1194"
     inkscape:cx="389.10031"
     inkscape:zoom="1.6"
     showgrid="false"
     id="namedview22"
     inkscape:window-height="855"
     inkscape:window-width="1440"
     inkscape:pageshadow="2"
     inkscape:pageopacity="0"
     guidetolerance="10"
     gridtolerance="10"
     objecttolerance="10"
     borderopacity="1"
     bordercolor="#666666"
     pagecolor="#ffffff"
     inkscape:document-rotation="0" />
  <defs
     id="defs25147" />
  <metadata
     id="metadata25150">
    <rdf:RDF>
      <cc:Work
         rdf:about="">
        <dc:format>image/svg+xml</dc:format>
        <dc:type
           rdf:resource="http://purl.org/dc/dcmitype/StillImage" />
        <dc:title></dc:title>
      </cc:Work>
    </rdf:RDF>
  </metadata>
  <g
     id="layer1"
     transform="matrix(20.264592,0,0,20.06161,-7208.7256,-10162.728)"
     inkscape:export-xdpi="72.599998"
     inkscape:export-ydpi="72.599998">
    <path
       sodipodi:nodetypes="csasccccccc"
       style="display:inline;fill:#000000;fill-opacity:1;fill-rule:nonzero;stroke:none;stroke-width:1.24914"
       id="path40"
       d="m 367.90652,506.58008 c 0,0 0.46037,0.0211 3.02984,0.0603 0.25488,0.004 1.23101,0.0857 1.83767,0.19229 0.82611,0.14517 1.67217,0.31756 2.44234,0.60707 3.01022,1.13152 4.74508,3.03884 6.00343,7.39729 l 0.75066,27.03017 -1.07473,1.14648 -0.61935,0.0498 -2.49485,-0.31199 -1.60385,-26.30836 c 0,0 -0.0245,-6.88495 -8.27116,-9.86724" />
    <path
       id="path906"
       style="display:inline;fill:#c0c0c0;fill-opacity:1;stroke:none;stroke-width:0.0495962;stroke-miterlimit:4;stroke-dasharray:none;stroke-dashoffset:0;stroke-opacity:1"
       d="m 367.90652,506.57589 c 3.39626,0 6.53004,0.91735 9.05492,3.41633 2.30975,2.28606 3.65814,5.55924 3.75067,8.24774 l 0.18362,24.77369 4.93615,-2.52248 -0.19936,-23.19829 c -0.0901,-2.83518 -3.4054,-8.7709 -11.10114,-10.31822 -0.99106,-0.21744 -2.56481,-0.33125 -4.54611,-0.37193 -0.69282,-0.0142 -1.38583,-0.0179 -2.07875,-0.0268"
       sodipodi:nodetypes="cscccccsc" />
    <path
       id="path885"
       style="display:inline;fill:#c0c0c0;fill-opacity:1;stroke:none;stroke-width:0.0495961;stroke-miterlimit:4;stroke-dasharray:none;stroke-dashoffset:0;stroke-opacity:1"
       d="m 380.08294,518.8755 0.19344,24.18799 -12.36986,-1.4905 -12.17641,-1.49051 V 518.8755 c 0,-6.79288 5.45157,-12.29961 12.17641,-12.29961 6.72485,0 12.12209,5.50695 12.17642,12.29961 z"
       sodipodi:nodetypes="scccsss" />
    <path
       style="display:inline;fill:#000000;stroke-width:0.0244084"
       d="m 376.32827,525.74663 c -0.21631,-0.0609 -0.3802,-0.31882 -0.34306,-0.53998 0.0205,-0.12225 0.15239,-0.27469 0.27191,-0.31437 0.13903,-0.0462 0.36148,-0.0149 0.47924,0.0674 0.26148,0.18269 0.27666,0.58678 0.0279,0.74147 -0.10075,0.0626 -0.30079,0.0835 -0.43594,0.0455 z m -3.66581,-0.35201 c -0.63576,-0.0449 -1.18058,-0.0822 -1.21069,-0.083 -0.0304,-7.9e-4 -0.0548,-0.0169 -0.0548,-0.0362 0,-0.0276 0.0442,-0.0344 0.21294,-0.0327 0.33406,0.003 0.50866,-0.0998 0.58399,-0.34466 0.0393,-0.12771 0.0427,-0.30957 0.0427,-2.30526 0,-2.37795 7e-5,-2.37666 -0.13965,-2.53675 -0.11406,-0.13068 -0.24058,-0.18389 -0.48589,-0.20433 -0.11812,-0.01 -0.21948,-0.0226 -0.22524,-0.0284 -0.0732,-0.0736 0.47315,-0.0668 2.2322,0.0279 0.94138,0.0507 1.40939,0.19036 1.80467,0.53865 0.38072,0.33545 0.53591,0.6665 0.53354,1.13806 -0.003,0.68382 -0.38799,1.17341 -1.07922,1.37402 -0.13129,0.0381 -0.23884,0.0457 -0.63272,0.0448 -0.47693,-10e-4 -0.70255,-0.028 -1.04393,-0.12439 -0.10809,-0.0305 -0.13496,-0.0314 -0.15173,-0.005 -0.0282,0.0448 -0.0252,1.59293 0.004,1.89189 0.047,0.48605 0.17995,0.6121 0.72959,0.69163 0.1296,0.0187 0.18419,0.0648 0.0852,0.0718 -0.0268,0.002 -0.56885,-0.0333 -1.20462,-0.0781 z m 1.38979,-2.70447 c 0.6541,-0.12479 1.03539,-0.76235 0.88549,-1.48063 -0.15627,-0.74875 -0.79611,-1.1617 -1.63509,-1.05528 -0.12305,0.0156 -0.22929,0.034 -0.23608,0.0408 -0.0218,0.0219 -0.021,2.35222 7.7e-4,2.3731 0.0193,0.0185 0.43472,0.10782 0.60505,0.13011 0.14365,0.0188 0.25088,0.0165 0.37986,-0.008 z m -4.12855,2.59849 c -0.27937,-0.12767 -0.36224,-0.48789 -0.15922,-0.69213 0.21855,-0.21986 0.60205,-0.15059 0.749,0.13529 0.0577,0.11223 0.0502,0.31009 -0.0159,0.41758 -0.10634,0.17309 -0.36339,0.23546 -0.57392,0.13926 z m -2.17703,-0.22569 c -1.49649,-0.10573 -1.38713,-0.0949 -1.38713,-0.1376 0,-0.0317 0.026,-0.0353 0.16427,-0.0224 0.28806,0.0268 0.47457,-0.0559 0.57224,-0.25376 l 0.0544,-0.11016 0.0177,-1.93404 c 0.0179,-1.95065 0.0127,-2.3539 -0.033,-2.56228 -0.048,-0.21889 -0.30032,-0.38278 -0.61742,-0.401 -0.0987,-0.006 -0.14601,-0.0186 -0.14601,-0.04 0,-0.0231 0.0427,-0.0302 0.15818,-0.0266 0.1904,0.006 1.39406,0.0521 1.75216,0.0671 0.14054,0.006 0.30755,0.0112 0.37112,0.0117 0.0861,7.4e-4 0.1156,0.0104 0.1156,0.0377 0,0.0298 -0.0401,0.0368 -0.21294,0.0373 -0.25037,6.3e-4 -0.36811,0.0439 -0.48572,0.17871 -0.0427,0.0489 -0.0864,0.13055 -0.0971,0.18133 -0.0254,0.12056 -0.0254,4.42181 0,4.54237 0.0393,0.18658 0.28175,0.37189 0.52216,0.3991 0.23364,0.0264 0.27363,0.0371 0.27363,0.0728 0,0.0196 -0.008,0.0342 -0.0183,0.0325 -0.01,-0.002 -0.46176,-0.0344 -1.00384,-0.0727 z m -2.8351,-0.11594 c -0.1785,-0.0854 -0.25552,-0.21145 -0.25552,-0.41822 0,-0.12968 0.061,-0.24288 0.17767,-0.32987 0.0926,-0.069 0.31302,-0.0702 0.42834,-0.002 0.14675,0.0865 0.22925,0.21465 0.24028,0.37332 0.008,0.11701 2.9e-4,0.15428 -0.0471,0.22382 -0.0882,0.12935 -0.17354,0.1806 -0.3175,0.19072 -0.0912,0.006 -0.15717,-0.005 -0.22612,-0.0375 z m -1.48447,-0.17647 c -0.30784,-0.024 -0.60352,-0.045 -0.65706,-0.0465 -0.0951,-0.003 -0.10127,-0.009 -0.2694,-0.25304 -0.47878,-0.69625 -1.57832,-2.26279 -1.61322,-2.29837 -0.0315,-0.0321 -0.0988,-0.0424 -0.31975,-0.049 l -0.27986,-0.008 v 0.94254 c 0,0.9922 0.0105,1.10861 0.11255,1.25285 0.0864,0.12203 0.24806,0.19784 0.44974,0.21086 0.13042,0.008 0.17994,0.0208 0.17994,0.0451 0,0.0423 -0.0393,0.0421 -0.63272,-0.003 -0.261,-0.0197 -0.69357,-0.0473 -0.96126,-0.0614 -0.26769,-0.0141 -0.51135,-0.0312 -0.54147,-0.0379 -0.11342,-0.0256 -0.0478,-0.0546 0.1466,-0.0649 0.23383,-0.0123 0.37861,-0.0781 0.45859,-0.20828 0.0859,-0.13989 0.0972,-0.45543 0.0884,-2.48019 -0.007,-1.50408 -0.0153,-1.94309 -0.0403,-2.01973 -0.0406,-0.12411 -0.18352,-0.2624 -0.31098,-0.30081 -0.0542,-0.0163 -0.16567,-0.0297 -0.24777,-0.0297 -0.13425,0 -0.14927,-0.005 -0.14927,-0.0502 0,-0.0463 0.0108,-0.0492 0.13993,-0.0369 0.077,0.007 0.46846,0.0245 0.87,0.0383 1.90078,0.0653 2.26476,0.14312 2.69915,0.57685 0.26899,0.26859 0.39666,0.60503 0.37093,0.97753 -0.0413,0.59762 -0.42104,1.00478 -1.07456,1.15207 -0.10708,0.0241 -0.20383,0.0517 -0.215,0.0612 -0.0201,0.0172 1.0427,1.56533 1.33632,1.94659 0.2879,0.37383 0.56196,0.56915 0.93534,0.66662 0.12332,0.0322 0.18476,0.0604 0.19008,0.0874 0.006,0.0283 -0.009,0.0389 -0.0487,0.0367 -0.0311,-0.002 -0.30841,-0.0228 -0.61626,-0.0469 z m -2.20271,-2.91562 c 0.2359,-0.063 0.39982,-0.15898 0.55723,-0.32641 0.18446,-0.19622 0.27395,-0.40406 0.28835,-0.66971 0.0309,-0.57088 -0.25576,-1.02562 -0.76007,-1.20558 -0.24659,-0.088 -0.87851,-0.0676 -1.00384,0.0324 -0.0235,0.0188 -0.0303,0.26678 -0.03,1.09234 2e-4,0.58743 0.009,1.08124 0.0189,1.09735 0.043,0.0681 0.64765,0.0548 0.92949,-0.0204 z"
       id="path1027"
       sodipodi:nodetypes="sccccssccsccsccccccscccccccccccccscccscccccsccccccscccsccsccsccccscccccccccccccsccscsccccccssccccccscccccccccccccc" />
  </g>
</svg>
